<svg xmlns="http://www.w3.org/2000/svg" xmlns:xlink="http://www.w3.org/1999/xlink" width="198.497" height="210.578" viewBox="0 0 198.497 210.578">
  <defs>
    <clipPath id="clip-path">
      <rect id="Rectangle_104" data-name="Rectangle 104" width="145.378" height="167.849"/>
    </clipPath>
    <clipPath id="clip-path-2">
      <rect id="Rectangle_103" data-name="Rectangle 103" width="145.379" height="167.85"/>
    </clipPath>
    <clipPath id="clip-path-3">
      <path id="Path_508" data-name="Path 508" d="M159.383,19.529l-5.508-7.04-5.405,7.04-5.352-7.04-5.4,7.04-5.3-7.04-5.456,7.04-5.3-7.04-5.4,7.04-5.4-7.04-5.3,7.04-5.508-7.04-5.3,7.04-5.456-7.04-5.3,7.04-5.456-7.04-5.3,7.04-5.456-7.04-5.508,7.04-6.288-7.1L46.157,23.337l6.391,6.981L46.261,36.2,52.6,41.917l-6.339,5.712L52.6,53.515l-6.339,5.943,6.339,5.6L46.261,70.94,52.6,76.768l-6.339,5.6L52.6,88.193l-6.339,5.885L52.6,99.906l-6.339,5.6,6.339,6-6.339,5.6,6.339,5.713-6.339,5.943,6.339,5.885-6.339,5.6,6.287,5.886-6.391,7.039,9.821,10.905,6.236-7.1,5.56,7.04,5.456-7.04,5.3,7.04,5.456-7.04,5.3,7.04,5.456-7.04,5.3,7.04,5.508-7.04,5.3,7.04,5.4-7.04,5.4,7.04,5.3-7.04,5.456,7.04,5.3-7.04,5.4,7.04,5.352-7.04,5.405,7.04,5.715-7.04,6.5,7.1,9.822-10.905-6.34-7.039,6.34-5.886-6.34-5.6,6.34-5.885-6.34-5.943,6.34-5.713-6.34-5.6,6.34-6-6.34-5.6,6.34-5.829-6.34-5.885,6.34-5.828-6.34-5.6,6.34-5.828-6.34-5.886,6.34-5.6-6.34-5.943,6.34-5.886-6.34-5.712,6.34-5.713-6.34-6.116,6.183-6.924-9.821-10.906Z" transform="translate(-46.157 -12.258)"/>
    </clipPath>
    <clipPath id="clip-path-4">
      <rect id="Rectangle_108" data-name="Rectangle 108" width="110.834" height="110.677"/>
    </clipPath>
    <clipPath id="clip-path-5">
      <rect id="Rectangle_107" data-name="Rectangle 107" width="110.835" height="110.678"/>
    </clipPath>
    <clipPath id="clip-path-8">
      <path id="Path_510" data-name="Path 510" d="M116.395,37.808A49.39,49.39,0,1,1,67.005,87.2a49.4,49.4,0,0,1,49.39-49.39" transform="translate(-67.005 -37.808)"/>
    </clipPath>
    <linearGradient id="linear-gradient" x1="0.803" y1="0.896" x2="0.209" y2="0.12" gradientUnits="objectBoundingBox">
      <stop offset="0" stop-color="#d8d9d9"/>
      <stop offset="0.83" stop-color="#fff"/>
      <stop offset="1" stop-color="#d8d9d9"/>
    </linearGradient>
    <clipPath id="clip-path-9">
      <path id="Path_514" data-name="Path 514" d="M160.454,101.869c-.23.768-.473,1.529-.734,2.273-5.924,15.017-17.927,25.045-33.88,27.8A43.676,43.676,0,0,1,90.3,121.289a45.568,45.568,0,0,1-12.264-19.42H99.112l-.757,15.389h14.7l-.519,6.651h13.51l-.519-6.651h14.184L139,101.87h21.454ZM137.542,76.681l-.638-13.95H124.225l-.519-5.924H115.03l-.52,5.924H101.054l-.537,13.95H78.007a42.052,42.052,0,0,1,24.4-27.125,45.887,45.887,0,0,1,19.017-3.378c16.732,1.2,30.762,10.861,37.464,26.345.551,1.378,1.04,2.757,1.459,4.158Z" transform="translate(-78.007 -46.162)"/>
    </clipPath>
  </defs>
  <g id="Group_198" data-name="Group 198" transform="translate(-900 -28.659)">
    <g id="Group_196" data-name="Group 196" transform="translate(926.566 28.659)">
      <path id="Path_505" data-name="Path 505" d="M207.413,4.5V0h.985l1.171,3.184c.108.3.187.518.236.666.056-.163.144-.4.263-.722L211.254,0h.881V4.5H211.5V.733L210.066,4.5h-.591L208.045.669V4.5Zm-2.941,0V.531h-1.63V0h3.921V.531h-1.637V4.5h-.654Z" transform="translate(-78.664)" fill="#fff"/>
      <g id="Group_178" data-name="Group 178" transform="translate(0 1.091)">
        <g id="Group_177" data-name="Group 177" clip-path="url(#clip-path)">
          <g id="Group_176" data-name="Group 176" transform="translate(0 -0.001)" clip-path="url(#clip-path-2)">
            <rect id="Rectangle_102" data-name="Rectangle 102" width="145.394" height="167.839" transform="translate(0 0)" fill="none"/>
          </g>
        </g>
      </g>
      <path id="Path_506" data-name="Path 506" d="M125.547,183.472a176.434,176.434,0,0,0,22.631-1.451H102.916a176.69,176.69,0,0,0,22.631,1.451" transform="translate(-52.999 -46.75)" fill="#ffcb06" fill-rule="evenodd"/>
      <g id="Group_180" data-name="Group 180" transform="translate(7.736 9.11)">
        <path id="Path_507" data-name="Path 507" d="M159.383,19.529l-5.508-7.04-5.405,7.04-5.352-7.04-5.4,7.04-5.3-7.04-5.456,7.04-5.3-7.04-5.4,7.04-5.4-7.04-5.3,7.04-5.508-7.04-5.3,7.04-5.456-7.04-5.3,7.04-5.456-7.04-5.3,7.04-5.456-7.04-5.508,7.04-6.288-7.1L46.157,23.337l6.391,6.981L46.261,36.2,52.6,41.917l-6.339,5.712L52.6,53.515l-6.339,5.943,6.339,5.6L46.261,70.94,52.6,76.768l-6.339,5.6L52.6,88.193l-6.339,5.885L52.6,99.906l-6.339,5.6,6.339,6-6.339,5.6,6.339,5.713-6.339,5.943,6.339,5.885-6.339,5.6,6.287,5.886-6.391,7.039,9.821,10.905,6.236-7.1,5.56,7.04,5.456-7.04,5.3,7.04,5.456-7.04,5.3,7.04,5.456-7.04,5.3,7.04,5.508-7.04,5.3,7.04,5.4-7.04,5.4,7.04,5.3-7.04,5.456,7.04,5.3-7.04,5.4,7.04,5.352-7.04,5.405,7.04,5.715-7.04,6.5,7.1,9.822-10.905-6.34-7.039,6.34-5.886-6.34-5.6,6.34-5.885-6.34-5.943,6.34-5.713-6.34-5.6,6.34-6-6.34-5.6,6.34-5.829-6.34-5.885,6.34-5.828-6.34-5.6,6.34-5.828-6.34-5.886,6.34-5.6-6.34-5.943,6.34-5.886-6.34-5.712,6.34-5.713-6.34-6.116,6.183-6.924-9.821-10.906Z" transform="translate(-46.157 -12.258)" fill="#f9e370"/>
        <g id="Group_179" data-name="Group 179" clip-path="url(#clip-path-3)">
          <rect id="Rectangle_105" data-name="Rectangle 105" width="129.75" height="151.811" fill="#f9e370"/>
        </g>
        <path id="Path_509" data-name="Path 509" d="M159.383,19.529l-5.508-7.04-5.405,7.04-5.352-7.04-5.4,7.04-5.3-7.04-5.456,7.04-5.3-7.04-5.4,7.04-5.4-7.04-5.3,7.04-5.508-7.04-5.3,7.04-5.456-7.04-5.3,7.04-5.456-7.04-5.3,7.04-5.456-7.04-5.508,7.04-6.288-7.1L46.157,23.337l6.391,6.981L46.261,36.2,52.6,41.917l-6.339,5.712L52.6,53.515l-6.339,5.943,6.339,5.6L46.261,70.94,52.6,76.768l-6.339,5.6L52.6,88.193l-6.339,5.885L52.6,99.906l-6.339,5.6,6.339,6-6.339,5.6,6.339,5.713-6.339,5.943,6.339,5.885-6.339,5.6,6.287,5.886-6.391,7.039,9.821,10.905,6.236-7.1,5.56,7.04,5.456-7.04,5.3,7.04,5.456-7.04,5.3,7.04,5.456-7.04,5.3,7.04,5.508-7.04,5.3,7.04,5.4-7.04,5.4,7.04,5.3-7.04,5.456,7.04,5.3-7.04,5.4,7.04,5.352-7.04,5.405,7.04,5.715-7.04,6.5,7.1,9.822-10.905-6.34-7.039,6.34-5.886-6.34-5.6,6.34-5.885-6.34-5.943,6.34-5.713-6.34-5.6,6.34-6-6.34-5.6,6.34-5.829-6.34-5.885,6.34-5.828-6.34-5.6,6.34-5.828-6.34-5.886,6.34-5.6-6.34-5.943,6.34-5.886-6.34-5.712,6.34-5.713-6.34-6.116,6.183-6.924-9.821-10.906Z" transform="translate(-46.157 -12.258)" fill="none" stroke="#000" stroke-width="2"/>
      </g>
      <g id="Group_183" data-name="Group 183" transform="translate(17.281 22.148)">
        <g id="Group_182" data-name="Group 182" clip-path="url(#clip-path-4)">
          <g id="Group_181" data-name="Group 181" clip-path="url(#clip-path-5)">
            <rect id="Rectangle_106" data-name="Rectangle 106" width="110.822" height="110.677" transform="translate(0 0)" fill="none"/>
          </g>
        </g>
      </g>
      <g id="Group_186" data-name="Group 186" transform="translate(17.281 22.148)">
        <g id="Group_185" data-name="Group 185" clip-path="url(#clip-path-4)">
          <g id="Group_184" data-name="Group 184" clip-path="url(#clip-path-5)">
            <rect id="Rectangle_109" data-name="Rectangle 109" width="110.822" height="110.677" transform="translate(0 0)" fill="none"/>
          </g>
        </g>
      </g>
      <g id="Group_188" data-name="Group 188" transform="translate(23.23 28.097)">
        <g id="Group_187" data-name="Group 187" clip-path="url(#clip-path-8)">
          <rect id="Rectangle_112" data-name="Rectangle 112" width="98.779" height="98.78" transform="translate(-0.001)" fill="url(#linear-gradient)"/>
        </g>
      </g>
      <path id="Path_511" data-name="Path 511" d="M150.928,52.41a49.012,49.012,0,1,0,14.359,34.661A48.869,48.869,0,0,0,150.928,52.41m-34.661-15.1A49.767,49.767,0,1,1,81.083,51.887,49.607,49.607,0,0,1,116.267,37.311Z" transform="translate(-43.647 -9.583)" fill="#fff"/>
      <path id="Path_512" data-name="Path 512" d="M160.454,101.869c-.23.768-.473,1.529-.734,2.273-5.924,15.017-17.927,25.045-33.88,27.8A43.676,43.676,0,0,1,90.3,121.289a45.568,45.568,0,0,1-12.264-19.42H99.112l-.757,15.389h14.7l-.519,6.651h13.51l-.519-6.651h14.184L139,101.87h21.454ZM137.542,76.681l-.638-13.95H124.225l-.519-5.924H115.03l-.52,5.924H101.054l-.537,13.95H78.007a42.052,42.052,0,0,1,24.4-27.125,45.887,45.887,0,0,1,19.017-3.378c16.732,1.2,30.762,10.861,37.464,26.345.551,1.378,1.04,2.757,1.459,4.158Z" transform="translate(-46.601 -11.856)" fill="#bc202b" fill-rule="evenodd"/>
      <g id="Group_195" data-name="Group 195" transform="translate(31.406 34.306)">
        <g id="Group_189" data-name="Group 189" clip-path="url(#clip-path-9)">
          <path id="Path_513" data-name="Path 513" d="M145.094,189.039a38.385,38.385,0,0,1-45.6,0c-5.883-4.669-9.523-11.134-9.523-18.285s3.64-13.615,9.523-18.285a38.385,38.385,0,0,1,45.6,0c5.883,4.669,9.522,11.134,9.522,18.285s-3.639,13.615-9.522,18.285m-22.8,6.211a35.468,35.468,0,0,0,22-7.223c5.58-4.428,9.032-10.537,9.032-17.273s-3.453-12.844-9.032-17.273a37.108,37.108,0,0,0-43.994,0c-5.58,4.428-9.032,10.538-9.032,17.273s3.453,12.844,9.032,17.273A35.466,35.466,0,0,0,122.293,195.251Z" transform="translate(-81.079 -71.538)" fill="#1b1a19"/>
        </g>
        <g id="Group_190" data-name="Group 190" clip-path="url(#clip-path-9)">
          <path id="Path_515" data-name="Path 515" d="M148.3,192a45.1,45.1,0,0,1-58.109,0c-7.462-6.574-12.078-15.661-12.078-25.7s4.616-19.13,12.078-25.706a45.1,45.1,0,0,1,58.109,0c7.463,6.576,12.078,15.661,12.078,25.706s-4.615,19.13-12.078,25.7m-29.055,9.313a42.614,42.614,0,0,0,28.2-10.284c7.19-6.334,11.637-15.079,11.637-24.733s-4.447-18.4-11.637-24.735a43.806,43.806,0,0,0-56.4,0c-7.19,6.334-11.638,15.079-11.638,24.735s4.448,18.4,11.638,24.733A42.614,42.614,0,0,0,119.248,201.314Z" transform="translate(-78.035 -67.691)" fill="#1b1a19"/>
        </g>
        <g id="Group_191" data-name="Group 191" clip-path="url(#clip-path-9)">
          <path id="Path_517" data-name="Path 517" d="M152.682,196.713a58.292,58.292,0,0,1-75.239,0c-9.654-8.522-15.626-20.3-15.626-33.314s5.972-24.793,15.626-33.314a58.292,58.292,0,0,1,75.239,0c9.654,8.522,15.625,20.3,15.625,33.314s-5.971,24.793-15.625,33.314m-37.619,12.469a55.483,55.483,0,0,0,36.765-13.435c9.382-8.283,15.186-19.72,15.186-32.349s-5.8-24.067-15.186-32.349a57.021,57.021,0,0,0-73.53,0c-9.382,8.282-15.185,19.72-15.185,32.349s5.8,24.067,15.185,32.349A55.481,55.481,0,0,0,115.062,209.182Z" transform="translate(-73.849 -64.181)" fill="#1b1a19"/>
        </g>
        <g id="Group_192" data-name="Group 192" clip-path="url(#clip-path-9)">
          <path id="Path_519" data-name="Path 519" d="M144.289,2.642a37.108,37.108,0,0,0-43.994,0c-5.58,4.429-9.032,10.537-9.032,17.273s3.453,12.844,9.032,17.273a37.108,37.108,0,0,0,43.994,0c5.58-4.429,9.032-10.537,9.032-17.273s-3.452-12.844-9.032-17.273m-22-8.517a36.778,36.778,0,0,1,22.8,7.506c5.883,4.67,9.522,11.134,9.522,18.285S150.977,33.53,145.094,38.2a38.382,38.382,0,0,1-45.6,0c-5.883-4.669-9.523-11.133-9.523-18.284S93.609,6.3,99.492,1.631A36.768,36.768,0,0,1,122.293-5.875Z" transform="translate(-81.079 -32.797)" fill="#1b1a19"/>
        </g>
        <g id="Group_193" data-name="Group 193" clip-path="url(#clip-path-9)">
          <path id="Path_521" data-name="Path 521" d="M147.448-7.632a43.806,43.806,0,0,0-56.4,0C83.858-1.3,79.411,7.448,79.411,17.1s4.448,18.4,11.638,24.733a43.806,43.806,0,0,0,56.4,0c7.19-6.333,11.637-15.079,11.637-24.733S154.638-1.3,147.448-7.632m-28.2-11.578A43.906,43.906,0,0,1,148.3-8.6c7.463,6.574,12.078,15.661,12.078,25.7s-4.615,19.13-12.078,25.7a45.1,45.1,0,0,1-58.109,0c-7.462-6.574-12.078-15.661-12.078-25.7S82.732-2.029,90.194-8.6A43.906,43.906,0,0,1,119.248-19.21Z" transform="translate(-78.035 -29.372)" fill="#1b1a19"/>
        </g>
        <g id="Group_194" data-name="Group 194" clip-path="url(#clip-path-9)">
          <path id="Path_523" data-name="Path 523" d="M151.827-19.792a57.022,57.022,0,0,0-73.53,0C68.916-11.51,63.112-.072,63.112,12.557s5.8,24.066,15.185,32.349a57.019,57.019,0,0,0,73.53,0c9.382-8.283,15.186-19.719,15.186-32.349s-5.8-24.067-15.186-32.349M115.062-34.521a56.783,56.783,0,0,1,37.619,13.764c9.654,8.523,15.625,20.3,15.625,33.315s-5.971,24.793-15.625,33.315a58.292,58.292,0,0,1-75.239,0c-9.654-8.523-15.626-20.3-15.626-33.316s5.972-24.793,15.626-33.314A56.783,56.783,0,0,1,115.062-34.521Z" transform="translate(-73.849 -25.439)" fill="#1b1a19"/>
        </g>
      </g>
      <path id="Path_525" data-name="Path 525" d="M159.054,102.535l.058-.181h-19.68l.711,15.389H125.985l.521,6.651H111.4l.519-6.651H97.239L98,102.354H78.708a42.1,42.1,0,0,0,4.371,9.157,49.214,49.214,0,0,0,7.392,9,42.626,42.626,0,0,0,16.189,9.081,43.916,43.916,0,0,0,18.714,1.373,43.2,43.2,0,0,0,20.282-9.082,44.361,44.361,0,0,0,13.031-18.25q.2-.573.368-1.094m1.767-.709c-.1.349-.224.733-.361,1.16-.131.405-.26.79-.386,1.147l-.009.023a45.826,45.826,0,0,1-13.474,18.861,44.664,44.664,0,0,1-20.97,9.4l-.023,0A45.381,45.381,0,0,1,106.238,131a44.117,44.117,0,0,1-16.772-9.42l-.023-.02a50.725,50.725,0,0,1-7.611-9.26,43.532,43.532,0,0,1-4.844-10.47l-.3-.956H99.544l-.757,15.389h14.726l-.519,6.651h11.912l-.521-6.651H138.6l-.713-15.389H161.1ZM137.3,62.445l.606,13.241H159q-.181-.562-.372-1.1-.356-1.012-.767-2.038a42.72,42.72,0,0,0-14.621-18.138,43.8,43.8,0,0,0-22.212-7.745,48.175,48.175,0,0,0-9.505.667,45.522,45.522,0,0,0-9.177,2.654,42.916,42.916,0,0,0-11.112,6.911A44.961,44.961,0,0,0,82.575,67a44.059,44.059,0,0,0-2.4,4.708q-.859,1.971-1.506,3.98h20.8L100,61.737h13.487l.52-5.925h10.031l.519,5.925h12.705Zm-.835,14.013-.606-13.242H123.206l-.519-5.924h-7.32l-.52,5.924H101.423l-.538,13.95H76.677l.28-.948a44.117,44.117,0,0,1,1.862-5.1,45.413,45.413,0,0,1,2.5-4.884l.012-.02a46.459,46.459,0,0,1,8.945-10.441,44.341,44.341,0,0,1,11.5-7.148l.015-.007a47.033,47.033,0,0,1,9.48-2.744,49.815,49.815,0,0,1,9.826-.685h.038A45.267,45.267,0,0,1,144.087,53.2a44.193,44.193,0,0,1,15.132,18.779l.008.017q.416,1.038.791,2.1.38,1.081.691,2.12l.285.951H136.5Z" transform="translate(-46.259 -11.602)" fill="#1b1a19"/>
      <path id="Path_526" data-name="Path 526" d="M140.038,102.237h2.626l1.549,2.577,1.541-2.577h2.614l-2.973,4.45v3.206h-2.374v-3.206Zm-7.488,0h7.2v1.893H137.33v5.764h-2.364V104.13h-2.417Zm-7.186,0h6.331v1.636h-3.957v1.22h3.668v1.561h-3.668v1.507h4.074v1.733h-6.448Zm-4.066,0h2.374v7.657H121.3Zm-3.313,4.522,2.075.626a3.779,3.779,0,0,1-.659,1.456,2.841,2.841,0,0,1-1.115.883,4.182,4.182,0,0,1-1.694.3,4.969,4.969,0,0,1-2.043-.361,3.247,3.247,0,0,1-1.365-1.276,4.319,4.319,0,0,1-.575-2.337,3.973,3.973,0,0,1,1.011-2.919,4.611,4.611,0,0,1,5.138-.436,3.443,3.443,0,0,1,1.23,1.8l-2.085.461a1.783,1.783,0,0,0-.23-.508,1.37,1.37,0,0,0-.487-.415,1.5,1.5,0,0,0-1.879.5,2.74,2.74,0,0,0-.324,1.5,2.857,2.857,0,0,0,.386,1.743,1.529,1.529,0,0,0,2.114.089A2.337,2.337,0,0,0,117.984,106.759Zm-11.944-.683a2.561,2.561,0,0,0,.432,1.664,1.639,1.639,0,0,0,2.358.011,2.825,2.825,0,0,0,.418-1.781,2.357,2.357,0,0,0-.437-1.577,1.494,1.494,0,0,0-1.185-.5,1.443,1.443,0,0,0-1.151.506A2.554,2.554,0,0,0,106.04,106.076Zm-2.363-.006a3.623,3.623,0,0,1,3.954-3.962,4.008,4.008,0,0,1,2.946,1.025,3.869,3.869,0,0,1,1.034,2.875,4.707,4.707,0,0,1-.45,2.2,3.235,3.235,0,0,1-1.306,1.337,4.308,4.308,0,0,1-2.13.478,4.914,4.914,0,0,1-2.144-.412A3.238,3.238,0,0,1,104.2,108.3,4.332,4.332,0,0,1,103.677,106.071Zm-7.828,1.29,2.245-.14a1.691,1.691,0,0,0,.3.83,1.254,1.254,0,0,0,1.045.463,1.152,1.152,0,0,0,.779-.236.684.684,0,0,0,.016-1.084,3.034,3.034,0,0,0-1.208-.444,5.117,5.117,0,0,1-2.217-.929,1.864,1.864,0,0,1-.668-1.475,2.007,2.007,0,0,1,.342-1.113,2.25,2.25,0,0,1,1.029-.824,4.794,4.794,0,0,1,1.882-.3,3.835,3.835,0,0,1,2.236.547,2.355,2.355,0,0,1,.916,1.738l-2.224.132a1.209,1.209,0,0,0-.372-.758,1.191,1.191,0,0,0-.786-.237.954.954,0,0,0-.622.175.535.535,0,0,0-.209.425.43.43,0,0,0,.169.328,1.884,1.884,0,0,0,.789.282,9.867,9.867,0,0,1,2.219.677,2.334,2.334,0,0,1,.977.849,2.153,2.153,0,0,1,.3,1.133,2.438,2.438,0,0,1-.406,1.358,2.551,2.551,0,0,1-1.139.943,4.585,4.585,0,0,1-1.841.321,3.8,3.8,0,0,1-2.7-.752A2.961,2.961,0,0,1,95.849,107.361Zm52.683-14.926h6.33v1.636h-3.956V95.29h3.667v1.562h-3.667v1.507h4.073v1.732h-6.448V92.435Zm-10.114,0h3.121l1.189,4.66,1.192-4.66h3.107v7.657h-1.935V94.255l-1.494,5.837h-1.753l-1.49-5.837v5.837H138.42V92.435Zm-8.236,0h7.2v1.893h-2.417v5.764H132.6V94.328h-2.417Zm-3.53,0h2.373v7.657h-2.373Zm-7.77,4.738-.836-2.752-.839,2.752Zm.5,1.658H116.7l-.385,1.261H113.9l2.882-7.657h2.589l2.869,7.657h-2.477Zm-8.775-6.4h2.374v7.657h-2.374Zm-6.019,1.733v4.18h.581a2.461,2.461,0,0,0,1.058-.164,1.123,1.123,0,0,0,.492-.573,3.583,3.583,0,0,0,.178-1.33,2.571,2.571,0,0,0-.4-1.665,1.691,1.691,0,0,0-1.321-.449Zm-2.363-1.733h3.516a4.223,4.223,0,0,1,1.679.282,2.761,2.761,0,0,1,1.058.81,3.359,3.359,0,0,1,.6,1.227,5.656,5.656,0,0,1,.189,1.483,5.126,5.126,0,0,1-.28,1.9,3.131,3.131,0,0,1-.775,1.133,2.527,2.527,0,0,1-1.066.609,5.469,5.469,0,0,1-1.41.209h-3.516V92.435Zm-8.918,0h2.208l2.871,4.228V92.435h2.235v7.657H98.386l-2.855-4.2v4.2H93.308Zm-4.087,0h2.374v7.657H89.221Z" transform="translate(-49.481 -23.741)" fill="#1b1a19"/>
      <rect id="Rectangle_113" data-name="Rectangle 113" width="1.295" height="10.945" transform="translate(71.982 34.306)" fill="#1b1a19"/>
      <rect id="Rectangle_114" data-name="Rectangle 114" width="1.295" height="8.482" transform="translate(71.982 112.051)" fill="#1b1a19"/>
      <path id="Path_527" data-name="Path 527" d="M147.242,191.924a.6.6,0,0,0-.4.146.968.968,0,0,0-.273.521,10.845,10.845,0,0,0-.014,3.227,1.109,1.109,0,0,0,.288.574.62.62,0,0,0,.8,0,.972.972,0,0,0,.271-.521,7.2,7.2,0,0,0,.128-1.637,7.308,7.308,0,0,0-.114-1.585,1.124,1.124,0,0,0-.288-.576.6.6,0,0,0-.4-.146m0-1.04a1.784,1.784,0,0,1,1.486.681,5.9,5.9,0,0,1,0,5.343,1.784,1.784,0,0,1-1.481.67,1.874,1.874,0,0,1-1.539-.734,6.013,6.013,0,0,1,.058-5.289A1.784,1.784,0,0,1,147.242,190.884Zm-5.979,4.584a1.17,1.17,0,0,0,.265.815.852.852,0,0,0,.659.292.822.822,0,0,0,.64-.282,1.167,1.167,0,0,0,.253-.811,1.052,1.052,0,0,0-.258-.745.846.846,0,0,0-.653-.282.779.779,0,0,0-.683.32A1.182,1.182,0,0,0,141.263,195.468Zm.119-2.8a.793.793,0,0,0,.21.586.861.861,0,0,0,1.13,0,.792.792,0,0,0,.213-.586.77.77,0,0,0-.21-.566.752.752,0,0,0-.557-.213.737.737,0,0,0-.786.784Zm-.262,1.26a1.447,1.447,0,0,1-.705-.565,1.472,1.472,0,0,1-.221-.787,1.587,1.587,0,0,1,.51-1.211,2.429,2.429,0,0,1,2.894,0,1.58,1.58,0,0,1,.514,1.211,1.426,1.426,0,0,1-.237.81,1.5,1.5,0,0,1-.666.542,1.765,1.765,0,0,1,.829.64,1.7,1.7,0,0,1,.283.971,1.981,1.981,0,0,1-.576,1.476,2.092,2.092,0,0,1-1.535.568,2.312,2.312,0,0,1-1.483-.47,1.834,1.834,0,0,1-.7-1.521,1.892,1.892,0,0,1,.263-.977A1.69,1.69,0,0,1,141.12,193.924Zm-3.293-.726a1.425,1.425,0,0,0-.279-.939.817.817,0,0,0-.642-.334.717.717,0,0,0-.575.274,1.386,1.386,0,0,0-.23.9,1.428,1.428,0,0,0,.25.927.779.779,0,0,0,.623.3.77.77,0,0,0,.607-.285A1.243,1.243,0,0,0,137.827,193.2Zm-2.822,2.744,1.215-.135a.89.89,0,0,0,.23.551.674.674,0,0,0,.491.18.8.8,0,0,0,.655-.36,3.082,3.082,0,0,0,.344-1.485,1.5,1.5,0,0,1-1.182.547,1.765,1.765,0,0,1-1.33-.6,2.171,2.171,0,0,1-.558-1.549,2.2,2.2,0,0,1,.591-1.6,2,2,0,0,1,1.5-.608,2.023,2.023,0,0,1,1.631.771,3.993,3.993,0,0,1,.638,2.537,4.047,4.047,0,0,1-.663,2.591,2.134,2.134,0,0,1-1.726.8,1.813,1.813,0,0,1-1.236-.411A1.98,1.98,0,0,1,135.006,195.941Zm-1.919,1.518h-1.251v-4.733a4.284,4.284,0,0,1-1.617.952v-1.141a3.587,3.587,0,0,0,1.064-.609,2.3,2.3,0,0,0,.788-1.043h1.016v6.575Zm-8.016,0v-1.251h1.251v1.251Zm-5.253-5.435v4.33h.982a3.6,3.6,0,0,0,.794-.062,1.205,1.205,0,0,0,.531-.273,1.377,1.377,0,0,0,.344-.63,4.237,4.237,0,0,0,.134-1.2,3.894,3.894,0,0,0-.134-1.162,1.5,1.5,0,0,0-.373-.635,1.254,1.254,0,0,0-.609-.308,6,6,0,0,0-1.079-.062Zm-1.324-1.1H120.9a4.658,4.658,0,0,1,1.242.125,2.174,2.174,0,0,1,.983.6,2.859,2.859,0,0,1,.624,1.06,4.877,4.877,0,0,1,.213,1.546,4.263,4.263,0,0,1-.2,1.39,2.872,2.872,0,0,1-.7,1.156,2.306,2.306,0,0,1-.926.522,3.948,3.948,0,0,1-1.166.138h-2.479v-6.54Zm-4.108,6.539v-5.435h-1.936v-1.1h5.187v1.1h-1.927v5.435Zm-7.909-2.118,1.288-.129a1.566,1.566,0,0,0,.469.949,1.421,1.421,0,0,0,.954.3,1.464,1.464,0,0,0,.958-.268.8.8,0,0,0,.323-.63.608.608,0,0,0-.135-.4,1.066,1.066,0,0,0-.473-.282c-.154-.055-.5-.149-1.052-.286a3.563,3.563,0,0,1-1.484-.65,1.731,1.731,0,0,1-.318-2.257,1.771,1.771,0,0,1,.814-.664,3.24,3.24,0,0,1,1.283-.23,2.718,2.718,0,0,1,1.846.546,1.931,1.931,0,0,1,.652,1.454l-1.324.047a1.133,1.133,0,0,0-.361-.728,1.316,1.316,0,0,0-.829-.222,1.48,1.48,0,0,0-.893.238.481.481,0,0,0-.209.408.5.5,0,0,0,.2.4,3.442,3.442,0,0,0,1.21.44,6.336,6.336,0,0,1,1.42.47,1.836,1.836,0,0,1,.722.665,1.946,1.946,0,0,1,.26,1.04,1.922,1.922,0,0,1-.312,1.054,1.857,1.857,0,0,1-.883.728,3.665,3.665,0,0,1-1.424.239,2.832,2.832,0,0,1-1.9-.572A2.475,2.475,0,0,1,106.476,195.341Zm-5.745,2.118V190.92h4.84v1.1h-3.516v1.453h3.269v1.1h-3.269v1.772H105.7v1.1h-4.968Z" transform="translate(-52.438 -49.005)" fill="#1b1a19"/>
    </g>
    <path id="Path_528" data-name="Path 528" d="M190.192,250.408v-7.5l-4.07-10.192h4.451l1.71,5.6,1.72-5.6H198.5l-4.071,10.192v7.5Zm-11.784,0V236.15h-3.317v-3.436h10.941v3.436h-3.482v14.258Zm-14.352,0V232.714h9.623v3.436h-5.505V239.4h5.082v3.553h-5.082v3.858h5.505v3.6h-9.623Zm-7.007,0V232.714h4.14v17.694Zm-6.78-6.847h4.07c.008.106.016.224.019.346s0,.306,0,.548a6.987,6.987,0,0,1-1.419,4.807,5.567,5.567,0,0,1-4.345,1.569,6.984,6.984,0,0,1-2.953-.573,4.751,4.751,0,0,1-1.988-1.736,6.01,6.01,0,0,1-.757-2.3,47.176,47.176,0,0,1,0-9.328,5.986,5.986,0,0,1,.757-2.293,4.684,4.684,0,0,1,1.965-1.729,6.674,6.674,0,0,1,2.906-.58,5.567,5.567,0,0,1,4.356,1.611,7.011,7.011,0,0,1,1.455,4.828v.172l-4.023-.013a5.924,5.924,0,0,0-.416-2.528,1.514,1.514,0,0,0-2.675.161,16.956,16.956,0,0,0-.369,4.7v.337a19.173,19.173,0,0,0,.369,5.028,1.352,1.352,0,0,0,1.364.924,1.368,1.368,0,0,0,1.306-.67,5.761,5.761,0,0,0,.372-2.5v-.782Zm-21.626-2a33.345,33.345,0,0,1,.232-4.662,6.014,6.014,0,0,1,.757-2.3,4.689,4.689,0,0,1,1.988-1.742,6.974,6.974,0,0,1,2.953-.568,6.888,6.888,0,0,1,2.949.568,4.71,4.71,0,0,1,1.969,1.742,5.84,5.84,0,0,1,.78,2.309,46.729,46.729,0,0,1,0,9.3,5.85,5.85,0,0,1-.78,2.313,4.678,4.678,0,0,1-1.969,1.736,7.885,7.885,0,0,1-5.9,0,4.746,4.746,0,0,1-1.988-1.736,6,6,0,0,1-.757-2.3A33.344,33.344,0,0,1,128.643,241.561Zm7.623,1.6v-3.192a10.276,10.276,0,0,0-.372-3.638,1.4,1.4,0,0,0-1.349-.7,1.355,1.355,0,0,0-1.321.714,10.316,10.316,0,0,0-.368,3.62v3.192a10.348,10.348,0,0,0,.368,3.6,1.6,1.6,0,0,0,2.675.014A10.32,10.32,0,0,0,136.266,243.158Zm-20.16,1.251h3.789v.517a4.367,4.367,0,0,0,.346,2.059,1.226,1.226,0,0,0,1.16.6,1.271,1.271,0,0,0,1.032-.456,1.851,1.851,0,0,0,.381-1.234c0-.859-.615-1.687-1.843-2.475-.2-.138-.353-.244-.459-.311l-.2-.125a13.857,13.857,0,0,1-3.1-2.53,4.963,4.963,0,0,1-.663-1.445,6.373,6.373,0,0,1-.232-1.758,4.857,4.857,0,0,1,1.346-3.639,5.034,5.034,0,0,1,3.7-1.321,5.427,5.427,0,0,1,3.914,1.3,4.964,4.964,0,0,1,1.349,3.752c0,.067,0,.166-.012.288s-.012.215-.012.286h-3.718V237.7a3.429,3.429,0,0,0-.36-1.748,1.239,1.239,0,0,0-1.989-.178,1.641,1.641,0,0,0-.356,1.106q0,1.124,2.015,2.383l.561.369c.109.06.259.157.45.288a9.544,9.544,0,0,1,2.78,2.321,4.926,4.926,0,0,1,.58,1.385,6.694,6.694,0,0,1,.2,1.682,5.67,5.67,0,0,1-1.38,4.093,5.2,5.2,0,0,1-3.937,1.436,5.435,5.435,0,0,1-4.04-1.373,5.611,5.611,0,0,1-1.348-4.086c0-.113,0-.235.007-.36S116.083,244.683,116.106,244.409Zm-17.951,6V232.714h9.623v3.436h-5.505V239.4h5.082v3.553h-5.082v3.858h5.505v3.6H98.155Zm-18.772,0V232.714h5.788l1.576,7.526c.007.039.071.51.192,1.419s.243,1.815.372,2.729q.147-1.023.372-2.533t.259-1.675l1.564-7.467H95.24v17.694H91.334l.357-13.673-2.8,13.673H85.734l-2.8-13.673.357,13.673Zm-9.313,0V236.15H66.753v-3.436H77.694v3.436H74.211v14.258Zm-9.172,0V232.714h4.141v17.694Zm-20.513,0,3.858-17.694h4.917l3.812,17.694H48.84l-.517-3.388H45.072l-.518,3.388Zm5.11-6.588h2.38L46.691,236.1Zm-10.846,6.588V232.714H38.79v17.694Zm-13.716,0V232.714H25.5a11.789,11.789,0,0,1,3.71.433,3.792,3.792,0,0,1,1.914,1.473,5.42,5.42,0,0,1,.78,2.111,32.885,32.885,0,0,1,.232,4.831,32.687,32.687,0,0,1-.232,4.828,5.549,5.549,0,0,1-.78,2.114,3.787,3.787,0,0,1-1.914,1.474,11.868,11.868,0,0,1-3.71.431H20.933Zm4.164-14.4v11.175a1.316,1.316,0,0,0,.239.025h.357a2.952,2.952,0,0,0,1.11-.184,1.585,1.585,0,0,0,.717-.589,2.778,2.778,0,0,0,.314-1.238c.059-.617.086-1.816.086-3.612v-.8c0-1.474-.027-2.467-.078-2.985a2.193,2.193,0,0,0-.3-1.063,1.406,1.406,0,0,0-.706-.565,3.275,3.275,0,0,0-1.185-.184c-.149,0-.259,0-.34,0S25.159,236,25.1,236.009Zm-18.089,14.4V232.714h4.306l3.439,10.914c-.137-1.835-.239-3.424-.306-4.756s-.1-2.459-.1-3.376v-2.781h3.694v17.694H13.716l-3.462-11.246q.23,2.195.349,4.255t.122,4v2.988H7.007Zm-7.007,0V232.714H4.141v17.694Z" transform="translate(900 -31.003)"/>
    <g id="Group_197" data-name="Group 197" transform="translate(907.182 226.568)">
      <path id="Path_529" data-name="Path 529" d="M82.494,270.476a.458.458,0,0,1-.156.331.559.559,0,0,1-.409.175,3.432,3.432,0,0,1-.677-.078.186.186,0,0,0-.163.038,4,4,0,0,0-.79,1.011,5.772,5.772,0,0,0-.716,1.856q-.1.507-.259,1.8a.124.124,0,0,1-.135.12h-.56c-.077,0-.109-.036-.1-.109q.139-.754.422-2.5A17.288,17.288,0,0,0,79.148,271c0-.076-.021-.108-.059-.1a2.454,2.454,0,0,0-.652.424c-.03.026-.057.031-.078.01a.713.713,0,0,1-.085-.084c-.016-.023-.013-.049.013-.078a4.536,4.536,0,0,1,1.248-.91.981.981,0,0,1,.343-.128c.062,0,.091.039.091.114a3.04,3.04,0,0,1-.016.308c-.062.707-.125,1.3-.193,1.768-.021.108-.025.167-.013.174a.48.48,0,0,0,.085-.149,5.658,5.658,0,0,1,.977-1.5,1.728,1.728,0,0,1,1.212-.728C82.336,270.117,82.494,270.236,82.494,270.476Zm-5.777,1.887a2.478,2.478,0,0,0-.294-1.409.9.9,0,0,0-.755-.369,1.274,1.274,0,0,0-.873.369,2.654,2.654,0,0,0-.683,1.176,4.854,4.854,0,0,0-.223,1.471,2.48,2.48,0,0,0,.259,1.285.984.984,0,0,0,.881.469,1.217,1.217,0,0,0,.885-.373A3.546,3.546,0,0,0,76.717,272.363Zm.893-.125a3.5,3.5,0,0,1-.434,1.656,4.109,4.109,0,0,1-1.012,1.263,2.384,2.384,0,0,1-1.484.65,1.469,1.469,0,0,1-1.243-.615,2.358,2.358,0,0,1-.385-1.436,3.85,3.85,0,0,1,1.225-2.724,2.535,2.535,0,0,1,1.791-.916,1.324,1.324,0,0,1,1.15.546A2.675,2.675,0,0,1,77.61,272.238ZM74,266.829c0,.216-.144.325-.434.325a.8.8,0,0,1-.578-.35.151.151,0,0,0-.115-.047.462.462,0,0,0-.331.149,2.747,2.747,0,0,0-.566,1.591q-.025.322-.175,1.628c-.008.084.013.128.059.128.085,0,.453,0,1.1-.013.02,0,.037.025.049.059a1.174,1.174,0,0,1-.037.273c0,.049-.023.071-.066.071-.025,0-.2,0-.533-.012l-.529-.01c-.064,0-.1.026-.108.084q0,.007-.537,4.388a14.059,14.059,0,0,1-.331,1.949,2.992,2.992,0,0,1-.834,1.434,1.518,1.518,0,0,1-1.019.392c-.406,0-.609-.129-.609-.392q0-.259.331-.259c.1,0,.251.1.447.3a.18.18,0,0,0,.128.048.454.454,0,0,0,.4-.224,3.721,3.721,0,0,0,.409-1.183q.133-.628.309-2.038l.525-4.334c.01-.1,0-.152-.049-.152s-.2,0-.447.012a.064.064,0,0,1-.047-.012c-.008-.006-.013-.03-.013-.073s.021-.1.037-.209c0-.064.027-.1.085-.1l.2-.006c.117,0,.2-.007.243-.007s.066-.03.066-.09c.048-.4.1-.851.163-1.357a3.168,3.168,0,0,1,.947-2.025,1.663,1.663,0,0,1,1.15-.458.772.772,0,0,1,.512.157A.461.461,0,0,1,74,266.829ZM66.483,271.3a.567.567,0,0,0-.163-.434.539.539,0,0,0-.409-.187.994.994,0,0,0-.737.3,2.534,2.534,0,0,0-.494,1.405c-.008.052,0,.082.012.091a.127.127,0,0,0,.072-.019,9.279,9.279,0,0,0,1.677-1.013C66.461,271.436,66.475,271.388,66.483,271.3Zm1.272-.58c0,.053-.058.126-.175.219a15.892,15.892,0,0,1-2.863,1.827.2.2,0,0,0-.128.149,3.064,3.064,0,0,0-.035.544,1.814,1.814,0,0,0,.366,1.217,1.037,1.037,0,0,0,.809.375,2.329,2.329,0,0,0,1.531-.675.06.06,0,0,1,.085-.013.516.516,0,0,1,.072.084c.02.038.02.064,0,.085a2.6,2.6,0,0,1-.687.643,3.034,3.034,0,0,1-1.682.629,1.03,1.03,0,0,1-.881-.591,3.413,3.413,0,0,1-.391-1.767,3.5,3.5,0,0,1,1.121-2.592,2.106,2.106,0,0,1,1.363-.742c.574,0,.889.206.947.62a.1.1,0,0,0,.113.1c.021,0,.077-.047.166-.14s.146-.14.167-.131A.153.153,0,0,1,67.755,270.723ZM63.282,275.1c.019.038.016.062-.013.074a2.538,2.538,0,0,1-.832.451,2.614,2.614,0,0,1-.863.187c-.08,0-.117-.055-.108-.169.043-.482.124-1.048.235-1.694a14.936,14.936,0,0,0,.271-2.444c0-.372-.12-.559-.356-.559q-.565,0-1.163,1.011a6.363,6.363,0,0,0-.693,1.772q-.127.557-.3,1.888c-.008.08-.043.12-.109.12h-.59c-.064,0-.091-.036-.078-.109q.145-.76.421-2.5a13.542,13.542,0,0,0,.146-1.628c0-.372-.12-.559-.356-.559-.379,0-.763.337-1.159,1.011a6.253,6.253,0,0,0-.694,1.772c-.088.372-.185,1-.294,1.888-.013.08-.049.12-.115.12h-.59c-.06,0-.085-.036-.072-.108q.139-.754.415-2.5A20.876,20.876,0,0,0,56.6,271c0-.059-.021-.09-.074-.09a1.48,1.48,0,0,0-.607.375c-.062.048-.1.064-.122.048a.66.66,0,0,1-.072-.084.066.066,0,0,1,.013-.091,4.71,4.71,0,0,1,1.144-.851,1.362,1.362,0,0,1,.459-.174c.042,0,.059.059.059.174,0,.067-.008.18-.022.344q-.049.537-.175,1.581c-.008.081-.013.132-.013.157s.014.019.029-.006a1.256,1.256,0,0,0,.074-.138,5.66,5.66,0,0,1,.885-1.431,1.64,1.64,0,0,1,1.153-.691q.664,0,.663,1.2a6.1,6.1,0,0,1-.059.884c-.016.113-.019.171-.006.175a.565.565,0,0,0,.091-.175,5.393,5.393,0,0,1,.879-1.393,1.654,1.654,0,0,1,1.146-.691q.694,0,.694,1.2a19.725,19.725,0,0,1-.285,2.415,9.584,9.584,0,0,0-.137,1.46c0,.109.039.154.115.134a2.17,2.17,0,0,0,.716-.32c.037-.02.066-.016.085.01C63.241,275.025,63.258,275.051,63.282,275.1Zm-9.14-4.413c.013-.077-.033-.131-.134-.157a1.65,1.65,0,0,0-.447-.049,1.976,1.976,0,0,0-1.356.675,3.376,3.376,0,0,0-.9,2.5,2.085,2.085,0,0,0,.241,1.1.59.59,0,0,0,.512.344,1.025,1.025,0,0,0,.679-.358,3.1,3.1,0,0,0,.63-.942,10.039,10.039,0,0,0,.585-2.022C54.045,271.3,54.109,270.93,54.142,270.682Zm1.138,4.334c.016.025.008.057-.022.091a2.545,2.545,0,0,1-.765.453,2.434,2.434,0,0,1-.815.247.1.1,0,0,1-.115-.119,12.055,12.055,0,0,1,.152-1.794c.013-.088,0-.131-.031-.131s-.056.036-.084.108a3.842,3.842,0,0,1-.778,1.223,4.849,4.849,0,0,1-.5.5,1.021,1.021,0,0,1-.621.216.971.971,0,0,1-.85-.542,2.883,2.883,0,0,1-.326-1.482,3.84,3.84,0,0,1,1.05-2.667,2.588,2.588,0,0,1,1.978-.927,2.807,2.807,0,0,1,.765.1c.093.025.155,0,.186-.073a1.549,1.549,0,0,0,.109-.421.1.1,0,0,1,.1-.084h.415a.147.147,0,0,1,.056.006c.01.009.008.03-.006.065a6.945,6.945,0,0,0-.369,1.275c-.138.739-.239,1.392-.309,1.96a19.017,19.017,0,0,0-.163,2.117c0,.068.027.1.078.1a1.548,1.548,0,0,0,.712-.308c.033-.019.058-.019.078,0A.307.307,0,0,1,55.28,275.016ZM50,275.1c.015.038.01.062-.012.074a2.524,2.524,0,0,1-.809.451,2.492,2.492,0,0,1-.862.187c-.08,0-.12-.048-.12-.143a15.81,15.81,0,0,1,.223-1.719,16.15,16.15,0,0,0,.247-2.2c0-.612-.121-.921-.363-.921q-.444,0-1.134,1.133a6.536,6.536,0,0,0-.716,1.816q-.266,1.043-.422,1.844a.129.129,0,0,1-.134.12h-.4c-.077,0-.109-.036-.1-.109q.139-.754.421-2.5a17.14,17.14,0,0,0,.193-2.135c0-.079-.025-.108-.072-.09a2.954,2.954,0,0,0-.64.412.071.071,0,0,1-.091,0,.9.9,0,0,1-.072-.074c-.016-.023-.012-.049.013-.078a4.734,4.734,0,0,1,.7-.566,4.136,4.136,0,0,1,.694-.422.61.61,0,0,1,.222-.049c.054,0,.074.074.066.225-.072.868-.142,1.509-.21,1.928a1.166,1.166,0,0,0-.019.157c0,.038.015.048.031.03a.66.66,0,0,0,.072-.125,5.944,5.944,0,0,1,.953-1.509c.43-.478.794-.716,1.1-.716q.7,0,.694,1.2a19.671,19.671,0,0,1-.284,2.415,9.5,9.5,0,0,0-.138,1.46c0,.1.037.142.113.122a1.867,1.867,0,0,0,.725-.308c.029-.024.054-.02.078.01A.444.444,0,0,1,50,275.1Zm-8.636-4.31c0-.053-.033-.091-.1-.116a1.185,1.185,0,0,0-.363-.036,1.925,1.925,0,0,0-1.675,1.1,3.859,3.859,0,0,0-.562,2.013,1.9,1.9,0,0,0,.224,1.006.6.6,0,0,0,.519.328,1.081,1.081,0,0,0,.7-.344,2.807,2.807,0,0,0,.658-.941,9.166,9.166,0,0,0,.494-2.022A9.473,9.473,0,0,0,41.362,270.786Zm1.369-4.09q-.194,1.213-.471,3.221-.234,1.724-.391,3.1a21.229,21.229,0,0,0-.175,2.116c0,.064.029.1.085.1a1.621,1.621,0,0,0,.728-.318c.033-.022.058-.022.074,0a.258.258,0,0,1,.066.084c.013.017,0,.047-.025.084a2.878,2.878,0,0,1-1.495.716c-.137.033-.207.022-.212-.035s0-.276.025-.681a11.791,11.791,0,0,1,.126-1.185.4.4,0,0,0,.007-.111c0-.022-.013-.023-.025-.007a.6.6,0,0,0-.047.1,4.259,4.259,0,0,1-.778,1.193,1.677,1.677,0,0,1-1.169.742,1,1,0,0,1-.834-.463,2.454,2.454,0,0,1-.379-1.46,3.522,3.522,0,0,1,1.084-2.659,2.885,2.885,0,0,1,1.966-.912,1.4,1.4,0,0,1,.393.038c.088.026.138.012.15-.05.068-.412.142-1.026.222-1.838.057-.591.084-1.01.084-1.261,0-.068-.031-.1-.1-.1a3.149,3.149,0,0,0-.891.187.051.051,0,0,1-.072-.036c-.013-.038-.029-.083-.049-.14-.008-.027.012-.052.062-.073a7.487,7.487,0,0,1,.947-.294,4.762,4.762,0,0,1,.969-.2C42.706,266.546,42.747,266.6,42.731,266.7ZM36.337,271.3a.567.567,0,0,0-.163-.434.54.54,0,0,0-.409-.187.994.994,0,0,0-.737.3,2.534,2.534,0,0,0-.494,1.405c-.008.052,0,.082.013.091a.127.127,0,0,0,.072-.019,9.279,9.279,0,0,0,1.677-1.013C36.315,271.436,36.329,271.388,36.337,271.3Zm1.272-.58c0,.053-.057.126-.175.219a15.892,15.892,0,0,1-2.863,1.827.2.2,0,0,0-.128.149,3.063,3.063,0,0,0-.035.544,1.814,1.814,0,0,0,.366,1.217,1.037,1.037,0,0,0,.809.375,2.333,2.333,0,0,0,1.532-.675.06.06,0,0,1,.085-.013.516.516,0,0,1,.072.084c.021.038.021.064,0,.085a2.589,2.589,0,0,1-.687.643,3.034,3.034,0,0,1-1.682.629,1.03,1.03,0,0,1-.881-.591,3.413,3.413,0,0,1-.391-1.767,3.5,3.5,0,0,1,1.121-2.592,2.106,2.106,0,0,1,1.363-.742q.861,0,.947.62a.1.1,0,0,0,.113.1q.031,0,.167-.14c.091-.1.146-.14.166-.131A.153.153,0,0,1,37.61,270.723Zm-4.31-.347c-.016.022-.048.077-.1.163a.2.2,0,0,1-.187.094h-1.2a.074.074,0,0,0-.084.061q-.21,1.217-.519,3.3a5.4,5.4,0,0,0-.023.556,1.082,1.082,0,0,0,.072.493.357.357,0,0,0,.307.2,1.718,1.718,0,0,0,.965-.493,1.092,1.092,0,0,1,.163-.135c.016-.016.037-.012.06.013a.365.365,0,0,1,.084.108.065.065,0,0,1,.019.029c0,.084-.2.267-.6.55a2.426,2.426,0,0,1-1.393.518.382.382,0,0,1-.3-.122,1.059,1.059,0,0,1-.169-.681,7.606,7.606,0,0,1,.072-1.084q.169-1.188.531-3.238c.008-.049-.008-.074-.049-.074h-.566c-.085,0-.124-.023-.115-.073s.029-.12.049-.222a.1.1,0,0,1,.1-.073h.569c.056,0,.088-.012.1-.036.013-.044.058-.285.138-.717a.283.283,0,0,1,.213-.236c.1-.026.257-.059.482-.1a.1.1,0,0,1,.094.022.083.083,0,0,1,.015.087,3.9,3.9,0,0,0-.175.827c-.008.1.006.149.042.149l.676-.006.67-.006C33.3,270.254,33.324,270.294,33.3,270.376Zm-4.084.331a.332.332,0,0,1-.111.236.339.339,0,0,1-.239.113c-.207,0-.4-.167-.578-.5a.187.187,0,0,0-.175-.1.929.929,0,0,0-.621.23.713.713,0,0,0-.265.56,1.24,1.24,0,0,0,.459.971c.273.241.525.457.754.644a1.887,1.887,0,0,1,.737,1.5,1.3,1.3,0,0,1-.519,1.063,1.854,1.854,0,0,1-1.182.379,2.049,2.049,0,0,1-1.086-.26.679.679,0,0,1-.385-.566c0-.245.128-.369.385-.369.193,0,.4.26.6.778a.191.191,0,0,0,.13.11,1.341,1.341,0,0,0,.292.022,1.046,1.046,0,0,0,.737-.276.856.856,0,0,0,.3-.646,1.314,1.314,0,0,0-.507-1.049c-.165-.14-.4-.34-.706-.6a1.659,1.659,0,0,1-.693-1.319,1.37,1.37,0,0,1,.459-1.055,1.6,1.6,0,0,1,1.121-.415C28.852,270.164,29.216,270.344,29.216,270.707ZM25.449,275.1c.019.025.01.053-.025.084a2.584,2.584,0,0,1-.743.412,2.611,2.611,0,0,1-.91.216c-.093,0-.138-.039-.138-.119,0-.135.019-.386.06-.757.056-.485.123-1,.2-1.532a.414.414,0,0,0,.006-.119c0-.02-.013-.023-.025-.006a.261.261,0,0,0-.054.1,6,6,0,0,1-1.029,1.669q-.661.762-1.136.762-.689,0-.687-1.194a19.994,19.994,0,0,1,.282-2.424,10,10,0,0,0,.134-1.466c0-.076-.025-.113-.072-.113a1.341,1.341,0,0,0-.765.308c-.025.025-.045.025-.062,0s-.031-.048-.06-.1c-.016-.026-.013-.048.013-.059a2.421,2.421,0,0,1,.8-.46,2.547,2.547,0,0,1,.863-.184c.085,0,.126.061.126.184a13.093,13.093,0,0,1-.222,1.678,15.586,15.586,0,0,0-.272,2.447c0,.456.107.682.319.682q.506,0,1.237-1.176a5.417,5.417,0,0,0,.754-1.816q.108-.59.259-1.765a.1.1,0,0,1,.109-.1h.6c.06,0,.087.029.078.084q-.164.843-.459,2.678a16.382,16.382,0,0,0-.163,2.225c0,.055.027.084.078.084a1.652,1.652,0,0,0,.765-.32c.033-.02.056-.02.072,0l.031.042A.308.308,0,0,1,25.449,275.1Zm-5.065-4.619a.458.458,0,0,1-.156.331.56.56,0,0,1-.409.175,3.426,3.426,0,0,1-.677-.078.186.186,0,0,0-.163.038,4.016,4.016,0,0,0-.791,1.011,5.769,5.769,0,0,0-.716,1.856q-.1.507-.259,1.8a.124.124,0,0,1-.134.12h-.56c-.077,0-.109-.036-.1-.109q.139-.754.422-2.5A17.287,17.287,0,0,0,17.038,271c0-.076-.021-.108-.06-.1a2.465,2.465,0,0,0-.652.424c-.031.026-.058.031-.078.01a.785.785,0,0,1-.084-.084c-.016-.023-.013-.049.013-.078a4.533,4.533,0,0,1,1.247-.91.989.989,0,0,1,.344-.128c.062,0,.091.039.091.114a2.84,2.84,0,0,1-.016.308q-.093,1.06-.194,1.768c-.02.108-.025.167-.012.174a.484.484,0,0,0,.084-.149,5.659,5.659,0,0,1,.977-1.5,1.73,1.73,0,0,1,1.212-.728C20.225,270.117,20.384,270.236,20.384,270.476Zm-4.16-2.857-.236.856c-.006.055-.027.084-.06.084-.013,0-.049-.034-.115-.1a1.447,1.447,0,0,0-.638-.35,6.07,6.07,0,0,0-1.509-.134.1.1,0,0,0-.113.084q-.321,2.763-.652,5.633a12.264,12.264,0,0,0-.107,1.26c0,.308.043.459.132.459h.928c.025,0,.033.017.025.048s0,.052-.006.1-.006.091-.006.108c0,.039-.019.059-.054.059h-2.95c-.031,0-.047-.02-.047-.059.008.023.013-.044.013-.2a.066.066,0,0,1,.072-.061l.838.013c.068,0,.111-.048.126-.14.041-.4.088-.876.146-1.417q.445-3.68.482-4.052.1-1.008.1-1.35c0-.328-.08-.49-.241-.49a7.689,7.689,0,0,0-1.84.175,1.527,1.527,0,0,0-.619.283c-.074.073-.122.108-.146.108-.051,0-.078-.016-.078-.049a.454.454,0,0,1,.037-.163c.072-.164.173-.44.3-.824a.119.119,0,0,1,.146-.059,24.83,24.83,0,0,0,3.11.131c1.408,0,2.227,0,2.462-.012a2.923,2.923,0,0,0,.3-.027c.093-.015.14-.02.14-.02C16.216,267.522,16.237,267.554,16.224,267.62Z" transform="translate(-9.664 -266.308)"/>
      <path id="Path_530" data-name="Path 530" d="M82.494,270.476a.458.458,0,0,1-.156.331.559.559,0,0,1-.409.175,3.432,3.432,0,0,1-.677-.078.186.186,0,0,0-.163.038,4,4,0,0,0-.79,1.011,5.772,5.772,0,0,0-.716,1.856q-.1.507-.259,1.8a.124.124,0,0,1-.135.12h-.56c-.077,0-.109-.036-.1-.109q.139-.754.422-2.5A17.288,17.288,0,0,0,79.148,271c0-.076-.021-.108-.059-.1a2.454,2.454,0,0,0-.652.424c-.03.026-.057.031-.078.01a.713.713,0,0,1-.085-.084c-.016-.023-.013-.049.013-.078a4.536,4.536,0,0,1,1.248-.91.981.981,0,0,1,.343-.128c.062,0,.091.039.091.114a3.04,3.04,0,0,1-.016.308c-.062.707-.125,1.3-.193,1.768-.021.108-.025.167-.013.174a.48.48,0,0,0,.085-.149,5.658,5.658,0,0,1,.977-1.5,1.728,1.728,0,0,1,1.212-.728C82.336,270.117,82.494,270.236,82.494,270.476Zm-5.777,1.887a2.478,2.478,0,0,0-.294-1.409.9.9,0,0,0-.755-.369,1.274,1.274,0,0,0-.873.369,2.654,2.654,0,0,0-.683,1.176,4.854,4.854,0,0,0-.223,1.471,2.48,2.48,0,0,0,.259,1.285.984.984,0,0,0,.881.469,1.217,1.217,0,0,0,.885-.373A3.546,3.546,0,0,0,76.717,272.363Zm.893-.125a3.5,3.5,0,0,1-.434,1.656,4.109,4.109,0,0,1-1.012,1.263,2.384,2.384,0,0,1-1.484.65,1.469,1.469,0,0,1-1.243-.615,2.358,2.358,0,0,1-.385-1.436,3.85,3.85,0,0,1,1.225-2.724,2.535,2.535,0,0,1,1.791-.916,1.324,1.324,0,0,1,1.15.546A2.675,2.675,0,0,1,77.61,272.238ZM74,266.829c0,.216-.144.325-.434.325a.8.8,0,0,1-.578-.35.151.151,0,0,0-.115-.047.462.462,0,0,0-.331.149,2.747,2.747,0,0,0-.566,1.591q-.025.322-.175,1.628c-.008.084.013.128.059.128.085,0,.453,0,1.1-.013.02,0,.037.025.049.059a1.174,1.174,0,0,1-.037.273c0,.049-.023.071-.066.071-.025,0-.2,0-.533-.012l-.529-.01c-.064,0-.1.026-.108.084q0,.007-.537,4.388a14.059,14.059,0,0,1-.331,1.949,2.992,2.992,0,0,1-.834,1.434,1.518,1.518,0,0,1-1.019.392c-.406,0-.609-.129-.609-.392q0-.259.331-.259c.1,0,.251.1.447.3a.18.18,0,0,0,.128.048.454.454,0,0,0,.4-.224,3.721,3.721,0,0,0,.409-1.183q.133-.628.309-2.038l.525-4.334c.01-.1,0-.152-.049-.152s-.2,0-.447.012a.064.064,0,0,1-.047-.012c-.008-.006-.013-.03-.013-.073s.021-.1.037-.209c0-.064.027-.1.085-.1l.2-.006c.117,0,.2-.007.243-.007s.066-.03.066-.09c.048-.4.1-.851.163-1.357a3.168,3.168,0,0,1,.947-2.025,1.663,1.663,0,0,1,1.15-.458.772.772,0,0,1,.512.157A.461.461,0,0,1,74,266.829ZM66.483,271.3a.567.567,0,0,0-.163-.434.539.539,0,0,0-.409-.187.994.994,0,0,0-.737.3,2.534,2.534,0,0,0-.494,1.405c-.008.052,0,.082.012.091a.127.127,0,0,0,.072-.019,9.279,9.279,0,0,0,1.677-1.013C66.461,271.436,66.475,271.388,66.483,271.3Zm1.272-.58c0,.053-.058.126-.175.219a15.892,15.892,0,0,1-2.863,1.827.2.2,0,0,0-.128.149,3.064,3.064,0,0,0-.035.544,1.814,1.814,0,0,0,.366,1.217,1.037,1.037,0,0,0,.809.375,2.329,2.329,0,0,0,1.531-.675.06.06,0,0,1,.085-.013.516.516,0,0,1,.072.084c.02.038.02.064,0,.085a2.6,2.6,0,0,1-.687.643,3.034,3.034,0,0,1-1.682.629,1.03,1.03,0,0,1-.881-.591,3.413,3.413,0,0,1-.391-1.767,3.5,3.5,0,0,1,1.121-2.592,2.106,2.106,0,0,1,1.363-.742c.574,0,.889.206.947.62a.1.1,0,0,0,.113.1c.021,0,.077-.047.166-.14s.146-.14.167-.131A.153.153,0,0,1,67.755,270.723ZM63.282,275.1c.019.038.016.062-.013.074a2.538,2.538,0,0,1-.832.451,2.614,2.614,0,0,1-.863.187c-.08,0-.117-.055-.108-.169.043-.482.124-1.048.235-1.694a14.936,14.936,0,0,0,.271-2.444c0-.372-.12-.559-.356-.559q-.565,0-1.163,1.011a6.363,6.363,0,0,0-.693,1.772q-.127.557-.3,1.888c-.008.08-.043.12-.109.12h-.59c-.064,0-.091-.036-.078-.109q.145-.76.421-2.5a13.542,13.542,0,0,0,.146-1.628c0-.372-.12-.559-.356-.559-.379,0-.763.337-1.159,1.011a6.253,6.253,0,0,0-.694,1.772c-.088.372-.185,1-.294,1.888-.013.08-.049.12-.115.12h-.59c-.06,0-.085-.036-.072-.108q.139-.754.415-2.5A20.876,20.876,0,0,0,56.6,271c0-.059-.021-.09-.074-.09a1.48,1.48,0,0,0-.607.375c-.062.048-.1.064-.122.048a.66.66,0,0,1-.072-.084.066.066,0,0,1,.013-.091,4.71,4.71,0,0,1,1.144-.851,1.362,1.362,0,0,1,.459-.174c.042,0,.059.059.059.174,0,.067-.008.18-.022.344q-.049.537-.175,1.581c-.008.081-.013.132-.013.157s.014.019.029-.006a1.256,1.256,0,0,0,.074-.138,5.66,5.66,0,0,1,.885-1.431,1.64,1.64,0,0,1,1.153-.691q.664,0,.663,1.2a6.1,6.1,0,0,1-.059.884c-.016.113-.019.171-.006.175a.565.565,0,0,0,.091-.175,5.393,5.393,0,0,1,.879-1.393,1.654,1.654,0,0,1,1.146-.691q.694,0,.694,1.2a19.725,19.725,0,0,1-.285,2.415,9.584,9.584,0,0,0-.137,1.46c0,.109.039.154.115.134a2.17,2.17,0,0,0,.716-.32c.037-.02.066-.016.085.01C63.241,275.025,63.258,275.051,63.282,275.1Zm-9.14-4.413c.013-.077-.033-.131-.134-.157a1.65,1.65,0,0,0-.447-.049,1.976,1.976,0,0,0-1.356.675,3.376,3.376,0,0,0-.9,2.5,2.085,2.085,0,0,0,.241,1.1.59.59,0,0,0,.512.344,1.025,1.025,0,0,0,.679-.358,3.1,3.1,0,0,0,.63-.942,10.039,10.039,0,0,0,.585-2.022C54.045,271.3,54.109,270.93,54.142,270.682Zm1.138,4.334c.016.025.008.057-.022.091a2.545,2.545,0,0,1-.765.453,2.434,2.434,0,0,1-.815.247.1.1,0,0,1-.115-.119,12.055,12.055,0,0,1,.152-1.794c.013-.088,0-.131-.031-.131s-.056.036-.084.108a3.842,3.842,0,0,1-.778,1.223,4.849,4.849,0,0,1-.5.5,1.021,1.021,0,0,1-.621.216.971.971,0,0,1-.85-.542,2.883,2.883,0,0,1-.326-1.482,3.84,3.84,0,0,1,1.05-2.667,2.588,2.588,0,0,1,1.978-.927,2.807,2.807,0,0,1,.765.1c.093.025.155,0,.186-.073a1.549,1.549,0,0,0,.109-.421.1.1,0,0,1,.1-.084h.415a.147.147,0,0,1,.056.006c.01.009.008.03-.006.065a6.945,6.945,0,0,0-.369,1.275c-.138.739-.239,1.392-.309,1.96a19.017,19.017,0,0,0-.163,2.117c0,.068.027.1.078.1a1.548,1.548,0,0,0,.712-.308c.033-.019.058-.019.078,0A.307.307,0,0,1,55.28,275.016ZM50,275.1c.015.038.01.062-.012.074a2.524,2.524,0,0,1-.809.451,2.492,2.492,0,0,1-.862.187c-.08,0-.12-.048-.12-.143a15.81,15.81,0,0,1,.223-1.719,16.15,16.15,0,0,0,.247-2.2c0-.612-.121-.921-.363-.921q-.444,0-1.134,1.133a6.536,6.536,0,0,0-.716,1.816q-.266,1.043-.422,1.844a.129.129,0,0,1-.134.12h-.4c-.077,0-.109-.036-.1-.109q.139-.754.421-2.5a17.14,17.14,0,0,0,.193-2.135c0-.079-.025-.108-.072-.09a2.954,2.954,0,0,0-.64.412.071.071,0,0,1-.091,0,.9.9,0,0,1-.072-.074c-.016-.023-.012-.049.013-.078a4.734,4.734,0,0,1,.7-.566,4.136,4.136,0,0,1,.694-.422.61.61,0,0,1,.222-.049c.054,0,.074.074.066.225-.072.868-.142,1.509-.21,1.928a1.166,1.166,0,0,0-.019.157c0,.038.015.048.031.03a.66.66,0,0,0,.072-.125,5.944,5.944,0,0,1,.953-1.509c.43-.478.794-.716,1.1-.716q.7,0,.694,1.2a19.671,19.671,0,0,1-.284,2.415,9.5,9.5,0,0,0-.138,1.46c0,.1.037.142.113.122a1.867,1.867,0,0,0,.725-.308c.029-.024.054-.02.078.01A.444.444,0,0,1,50,275.1Zm-8.636-4.31c0-.053-.033-.091-.1-.116a1.185,1.185,0,0,0-.363-.036,1.925,1.925,0,0,0-1.675,1.1,3.859,3.859,0,0,0-.562,2.013,1.9,1.9,0,0,0,.224,1.006.6.6,0,0,0,.519.328,1.081,1.081,0,0,0,.7-.344,2.807,2.807,0,0,0,.658-.941,9.166,9.166,0,0,0,.494-2.022A9.473,9.473,0,0,0,41.362,270.786Zm1.369-4.09q-.194,1.213-.471,3.221-.234,1.724-.391,3.1a21.229,21.229,0,0,0-.175,2.116c0,.064.029.1.085.1a1.621,1.621,0,0,0,.728-.318c.033-.022.058-.022.074,0a.258.258,0,0,1,.066.084c.013.017,0,.047-.025.084a2.878,2.878,0,0,1-1.495.716c-.137.033-.207.022-.212-.035s0-.276.025-.681a11.791,11.791,0,0,1,.126-1.185.4.4,0,0,0,.007-.111c0-.022-.013-.023-.025-.007a.6.6,0,0,0-.047.1,4.259,4.259,0,0,1-.778,1.193,1.677,1.677,0,0,1-1.169.742,1,1,0,0,1-.834-.463,2.454,2.454,0,0,1-.379-1.46,3.522,3.522,0,0,1,1.084-2.659,2.885,2.885,0,0,1,1.966-.912,1.4,1.4,0,0,1,.393.038c.088.026.138.012.15-.05.068-.412.142-1.026.222-1.838.057-.591.084-1.01.084-1.261,0-.068-.031-.1-.1-.1a3.149,3.149,0,0,0-.891.187.051.051,0,0,1-.072-.036c-.013-.038-.029-.083-.049-.14-.008-.027.012-.052.062-.073a7.487,7.487,0,0,1,.947-.294,4.762,4.762,0,0,1,.969-.2C42.706,266.546,42.747,266.6,42.731,266.7ZM36.337,271.3a.567.567,0,0,0-.163-.434.54.54,0,0,0-.409-.187.994.994,0,0,0-.737.3,2.534,2.534,0,0,0-.494,1.405c-.008.052,0,.082.013.091a.127.127,0,0,0,.072-.019,9.279,9.279,0,0,0,1.677-1.013C36.315,271.436,36.329,271.388,36.337,271.3Zm1.272-.58c0,.053-.057.126-.175.219a15.892,15.892,0,0,1-2.863,1.827.2.2,0,0,0-.128.149,3.063,3.063,0,0,0-.035.544,1.814,1.814,0,0,0,.366,1.217,1.037,1.037,0,0,0,.809.375,2.333,2.333,0,0,0,1.532-.675.06.06,0,0,1,.085-.013.516.516,0,0,1,.072.084c.021.038.021.064,0,.085a2.589,2.589,0,0,1-.687.643,3.034,3.034,0,0,1-1.682.629,1.03,1.03,0,0,1-.881-.591,3.413,3.413,0,0,1-.391-1.767,3.5,3.5,0,0,1,1.121-2.592,2.106,2.106,0,0,1,1.363-.742q.861,0,.947.62a.1.1,0,0,0,.113.1q.031,0,.167-.14c.091-.1.146-.14.166-.131A.153.153,0,0,1,37.61,270.723Zm-4.31-.347c-.016.022-.048.077-.1.163a.2.2,0,0,1-.187.094h-1.2a.074.074,0,0,0-.084.061q-.21,1.217-.519,3.3a5.4,5.4,0,0,0-.023.556,1.082,1.082,0,0,0,.072.493.357.357,0,0,0,.307.2,1.718,1.718,0,0,0,.965-.493,1.092,1.092,0,0,1,.163-.135c.016-.016.037-.012.06.013a.365.365,0,0,1,.084.108.065.065,0,0,1,.019.029c0,.084-.2.267-.6.55a2.426,2.426,0,0,1-1.393.518.382.382,0,0,1-.3-.122,1.059,1.059,0,0,1-.169-.681,7.606,7.606,0,0,1,.072-1.084q.169-1.188.531-3.238c.008-.049-.008-.074-.049-.074h-.566c-.085,0-.124-.023-.115-.073s.029-.12.049-.222a.1.1,0,0,1,.1-.073h.569c.056,0,.088-.012.1-.036.013-.044.058-.285.138-.717a.283.283,0,0,1,.213-.236c.1-.026.257-.059.482-.1a.1.1,0,0,1,.094.022.083.083,0,0,1,.015.087,3.9,3.9,0,0,0-.175.827c-.008.1.006.149.042.149l.676-.006.67-.006C33.3,270.254,33.324,270.294,33.3,270.376Zm-4.084.331a.332.332,0,0,1-.111.236.339.339,0,0,1-.239.113c-.207,0-.4-.167-.578-.5a.187.187,0,0,0-.175-.1.929.929,0,0,0-.621.23.713.713,0,0,0-.265.56,1.24,1.24,0,0,0,.459.971c.273.241.525.457.754.644a1.887,1.887,0,0,1,.737,1.5,1.3,1.3,0,0,1-.519,1.063,1.854,1.854,0,0,1-1.182.379,2.049,2.049,0,0,1-1.086-.26.679.679,0,0,1-.385-.566c0-.245.128-.369.385-.369.193,0,.4.26.6.778a.191.191,0,0,0,.13.11,1.341,1.341,0,0,0,.292.022,1.046,1.046,0,0,0,.737-.276.856.856,0,0,0,.3-.646,1.314,1.314,0,0,0-.507-1.049c-.165-.14-.4-.34-.706-.6a1.659,1.659,0,0,1-.693-1.319,1.37,1.37,0,0,1,.459-1.055,1.6,1.6,0,0,1,1.121-.415C28.852,270.164,29.216,270.344,29.216,270.707ZM25.449,275.1c.019.025.01.053-.025.084a2.584,2.584,0,0,1-.743.412,2.611,2.611,0,0,1-.91.216c-.093,0-.138-.039-.138-.119,0-.135.019-.386.06-.757.056-.485.123-1,.2-1.532a.414.414,0,0,0,.006-.119c0-.02-.013-.023-.025-.006a.261.261,0,0,0-.054.1,6,6,0,0,1-1.029,1.669q-.661.762-1.136.762-.689,0-.687-1.194a19.994,19.994,0,0,1,.282-2.424,10,10,0,0,0,.134-1.466c0-.076-.025-.113-.072-.113a1.341,1.341,0,0,0-.765.308c-.025.025-.045.025-.062,0s-.031-.048-.06-.1c-.016-.026-.013-.048.013-.059a2.421,2.421,0,0,1,.8-.46,2.547,2.547,0,0,1,.863-.184c.085,0,.126.061.126.184a13.093,13.093,0,0,1-.222,1.678,15.586,15.586,0,0,0-.272,2.447c0,.456.107.682.319.682q.506,0,1.237-1.176a5.417,5.417,0,0,0,.754-1.816q.108-.59.259-1.765a.1.1,0,0,1,.109-.1h.6c.06,0,.087.029.078.084q-.164.843-.459,2.678a16.382,16.382,0,0,0-.163,2.225c0,.055.027.084.078.084a1.652,1.652,0,0,0,.765-.32c.033-.02.056-.02.072,0l.031.042A.308.308,0,0,1,25.449,275.1Zm-5.065-4.619a.458.458,0,0,1-.156.331.56.56,0,0,1-.409.175,3.426,3.426,0,0,1-.677-.078.186.186,0,0,0-.163.038,4.016,4.016,0,0,0-.791,1.011,5.769,5.769,0,0,0-.716,1.856q-.1.507-.259,1.8a.124.124,0,0,1-.134.12h-.56c-.077,0-.109-.036-.1-.109q.139-.754.422-2.5A17.287,17.287,0,0,0,17.038,271c0-.076-.021-.108-.06-.1a2.465,2.465,0,0,0-.652.424c-.031.026-.058.031-.078.01a.785.785,0,0,1-.084-.084c-.016-.023-.013-.049.013-.078a4.533,4.533,0,0,1,1.247-.91.989.989,0,0,1,.344-.128c.062,0,.091.039.091.114a2.84,2.84,0,0,1-.016.308q-.093,1.06-.194,1.768c-.02.108-.025.167-.012.174a.484.484,0,0,0,.084-.149,5.659,5.659,0,0,1,.977-1.5,1.73,1.73,0,0,1,1.212-.728C20.225,270.117,20.384,270.236,20.384,270.476Zm-4.16-2.857-.236.856c-.006.055-.027.084-.06.084-.013,0-.049-.034-.115-.1a1.447,1.447,0,0,0-.638-.35,6.07,6.07,0,0,0-1.509-.134.1.1,0,0,0-.113.084q-.321,2.763-.652,5.633a12.264,12.264,0,0,0-.107,1.26c0,.308.043.459.132.459h.928c.025,0,.033.017.025.048s0,.052-.006.1-.006.091-.006.108c0,.039-.019.059-.054.059h-2.95c-.031,0-.047-.02-.047-.059.008.023.013-.044.013-.2a.066.066,0,0,1,.072-.061l.838.013c.068,0,.111-.048.126-.14.041-.4.088-.876.146-1.417q.445-3.68.482-4.052.1-1.008.1-1.35c0-.328-.08-.49-.241-.49a7.689,7.689,0,0,0-1.84.175,1.527,1.527,0,0,0-.619.283c-.074.073-.122.108-.146.108-.051,0-.078-.016-.078-.049a.454.454,0,0,1,.037-.163c.072-.164.173-.44.3-.824a.119.119,0,0,1,.146-.059,24.83,24.83,0,0,0,3.11.131c1.408,0,2.227,0,2.462-.012a2.923,2.923,0,0,0,.3-.027c.093-.015.14-.02.14-.02C16.216,267.522,16.237,267.554,16.224,267.62Z" transform="translate(-9.664 -266.308)" stroke="#fff" stroke-width="0.216"/>
      <path id="Path_531" data-name="Path 531" d="M191.67,275.177c.019.038.016.062-.012.074a2.547,2.547,0,0,1-.832.451,2.619,2.619,0,0,1-.863.187c-.08,0-.117-.055-.108-.169.043-.482.123-1.048.234-1.694a14.934,14.934,0,0,0,.271-2.444c0-.372-.119-.559-.356-.559-.377,0-.766.337-1.163,1.011a6.364,6.364,0,0,0-.693,1.772q-.126.557-.3,1.888c-.009.079-.044.12-.109.12h-.591c-.064,0-.091-.036-.078-.108q.145-.76.421-2.5a13.545,13.545,0,0,0,.146-1.628c0-.372-.119-.559-.356-.559-.379,0-.764.337-1.16,1.011a6.274,6.274,0,0,0-.693,1.772c-.088.372-.185,1-.294,1.888-.013.08-.05.12-.116.12h-.591c-.059,0-.084-.036-.072-.109q.139-.754.416-2.5a20.425,20.425,0,0,0,.212-2.135c0-.059-.02-.09-.074-.09a1.475,1.475,0,0,0-.606.375c-.062.047-.1.064-.122.047a.654.654,0,0,1-.072-.084.066.066,0,0,1,.013-.091,4.721,4.721,0,0,1,1.144-.851,1.368,1.368,0,0,1,.459-.174c.042,0,.06.059.06.174,0,.067-.009.18-.023.344-.033.358-.09.885-.175,1.581-.008.081-.013.132-.013.157s.015.019.029-.006a1.548,1.548,0,0,0,.074-.138,5.641,5.641,0,0,1,.885-1.431,1.641,1.641,0,0,1,1.153-.691q.664,0,.663,1.2a6.1,6.1,0,0,1-.06.884c-.016.113-.018.171-.006.175a.584.584,0,0,0,.091-.175,5.413,5.413,0,0,1,.879-1.393,1.655,1.655,0,0,1,1.147-.691q.695,0,.694,1.2a19.732,19.732,0,0,1-.285,2.415,9.5,9.5,0,0,0-.138,1.46c0,.109.039.154.115.134a2.18,2.18,0,0,0,.716-.32c.037-.02.065-.016.084.01A.379.379,0,0,1,191.67,275.177Zm-7.953,0c.018.038.016.062-.013.074a2.523,2.523,0,0,1-.832.451,2.611,2.611,0,0,1-.862.187c-.08,0-.117-.055-.108-.169.044-.482.123-1.048.234-1.694a14.948,14.948,0,0,0,.272-2.444c0-.372-.12-.559-.356-.559q-.565,0-1.163,1.011a6.364,6.364,0,0,0-.693,1.772q-.127.557-.3,1.888c-.008.079-.043.12-.109.12H179.2c-.064,0-.09-.036-.078-.108q.146-.76.422-2.5a13.5,13.5,0,0,0,.146-1.628c0-.372-.12-.559-.356-.559-.379,0-.763.337-1.159,1.011a6.252,6.252,0,0,0-.694,1.772c-.088.372-.185,1-.294,1.888-.012.08-.049.12-.114.12h-.591c-.059,0-.084-.036-.073-.109q.139-.754.416-2.5a20.878,20.878,0,0,0,.213-2.135c0-.059-.021-.09-.074-.09a1.471,1.471,0,0,0-.607.375c-.062.047-.1.064-.121.047a.664.664,0,0,1-.073-.084.068.068,0,0,1,.013-.091,4.7,4.7,0,0,1,1.144-.851,1.366,1.366,0,0,1,.459-.174c.042,0,.059.059.059.174,0,.067-.008.18-.022.344q-.05.537-.175,1.581c-.008.081-.012.132-.012.157s.014.019.028-.006a1.228,1.228,0,0,0,.074-.138,5.662,5.662,0,0,1,.885-1.431,1.64,1.64,0,0,1,1.153-.691q.663,0,.663,1.2a6.1,6.1,0,0,1-.059.884c-.016.113-.019.171-.006.175a.572.572,0,0,0,.09-.175,5.394,5.394,0,0,1,.88-1.393,1.653,1.653,0,0,1,1.146-.691q.694,0,.694,1.2a19.727,19.727,0,0,1-.285,2.415,9.583,9.583,0,0,0-.137,1.46c0,.109.039.154.114.134a2.174,2.174,0,0,0,.716-.32c.037-.02.066-.016.085.01A.815.815,0,0,1,183.717,275.177Zm-9.052-2.732a2.478,2.478,0,0,0-.294-1.409.9.9,0,0,0-.756-.369,1.272,1.272,0,0,0-.872.369,2.655,2.655,0,0,0-.684,1.176,4.878,4.878,0,0,0-.222,1.471,2.473,2.473,0,0,0,.259,1.285.983.983,0,0,0,.881.469,1.216,1.216,0,0,0,.885-.373A3.543,3.543,0,0,0,174.665,272.445Zm.893-.125a3.485,3.485,0,0,1-.435,1.657,4.118,4.118,0,0,1-1.011,1.263,2.384,2.384,0,0,1-1.485.65,1.468,1.468,0,0,1-1.243-.615,2.353,2.353,0,0,1-.385-1.436,3.851,3.851,0,0,1,1.223-2.724,2.536,2.536,0,0,1,1.791-.916,1.326,1.326,0,0,1,1.151.545A2.67,2.67,0,0,1,175.558,272.32Zm-5.03-3.431c-.009.093-.03.138-.073.138-.025,0-.059-.036-.109-.113a2.718,2.718,0,0,0-.481-.531,2.427,2.427,0,0,0-1.568-.434,3.069,3.069,0,0,0-2.238.916,4.709,4.709,0,0,0-1.272,3.521,3.037,3.037,0,0,0,.79,2.3,2.583,2.583,0,0,0,1.8.8,3.7,3.7,0,0,0,1.218-.2,2.149,2.149,0,0,0,.785-.421A3.108,3.108,0,0,0,169.8,274a.15.15,0,0,1,.138-.059c.072,0,.077.2.013.6-.033.184-.059.337-.084.457a.233.233,0,0,1-.115.12,4.417,4.417,0,0,1-1.157.544,4.62,4.62,0,0,1-1.387.247,3.249,3.249,0,0,1-2.346-.816,3.386,3.386,0,0,1-1-2.568,5.161,5.161,0,0,1,.512-2.238,5.263,5.263,0,0,1,1.356-1.784,4.079,4.079,0,0,1,1.188-.682,4.139,4.139,0,0,1,1.442-.283,3.9,3.9,0,0,1,2.086.417.145.145,0,0,1,.072.126A7.014,7.014,0,0,1,170.528,268.889Zm-10.546,1.978c0-.053-.033-.091-.1-.116a1.175,1.175,0,0,0-.361-.036,1.927,1.927,0,0,0-1.676,1.1,3.853,3.853,0,0,0-.563,2.013,1.9,1.9,0,0,0,.225,1.006.6.6,0,0,0,.518.328,1.081,1.081,0,0,0,.7-.344,2.832,2.832,0,0,0,.659-.941,11.391,11.391,0,0,0,.6-3.009Zm1.369-4.09q-.2,1.213-.472,3.221-.234,1.724-.39,3.1a21.235,21.235,0,0,0-.175,2.117c0,.064.029.1.085.1a1.624,1.624,0,0,0,.728-.318c.033-.021.057-.021.074,0a.257.257,0,0,1,.066.084c.012.017,0,.047-.025.084a2.88,2.88,0,0,1-1.5.716c-.138.033-.207.021-.212-.035s0-.276.024-.681a11.606,11.606,0,0,1,.126-1.185.387.387,0,0,0,.006-.112c0-.022-.013-.023-.024-.007a.6.6,0,0,0-.047.1,4.264,4.264,0,0,1-.779,1.193,1.675,1.675,0,0,1-1.168.742,1,1,0,0,1-.834-.463,2.454,2.454,0,0,1-.378-1.46,3.519,3.519,0,0,1,1.084-2.659,2.885,2.885,0,0,1,1.966-.912,1.388,1.388,0,0,1,.393.038c.088.026.138.012.15-.051.068-.412.141-1.026.223-1.838.057-.591.084-1.01.084-1.261,0-.068-.031-.1-.1-.1a3.151,3.151,0,0,0-.891.187.051.051,0,0,1-.072-.036c-.013-.038-.028-.082-.049-.14-.008-.028.013-.052.062-.073a7.548,7.548,0,0,1,.946-.294,4.767,4.767,0,0,1,.97-.2C161.325,266.627,161.366,266.678,161.351,266.777Zm-5.331,8.4c.015.038.01.062-.013.074a2.518,2.518,0,0,1-.809.451,2.486,2.486,0,0,1-.862.187c-.079,0-.119-.048-.119-.143a15.927,15.927,0,0,1,.222-1.719,16.032,16.032,0,0,0,.247-2.2c0-.612-.121-.922-.362-.922-.3,0-.675.379-1.134,1.133a6.537,6.537,0,0,0-.716,1.815q-.265,1.043-.422,1.845a.128.128,0,0,1-.134.12h-.4c-.076,0-.108-.036-.1-.109q.137-.754.421-2.5a17.29,17.29,0,0,0,.193-2.135c0-.079-.025-.108-.072-.09a2.935,2.935,0,0,0-.64.412.072.072,0,0,1-.091,0,.908.908,0,0,1-.072-.074c-.016-.023-.013-.049.013-.078a4.773,4.773,0,0,1,.7-.566,4.1,4.1,0,0,1,.694-.422.611.611,0,0,1,.222-.049c.054,0,.075.074.066.225-.073.868-.142,1.509-.21,1.928a1.135,1.135,0,0,0-.018.157c0,.038.015.048.031.03a.585.585,0,0,0,.072-.125,5.985,5.985,0,0,1,.953-1.509c.43-.478.794-.716,1.1-.716q.694,0,.694,1.2a19.727,19.727,0,0,1-.285,2.415,9.5,9.5,0,0,0-.138,1.46c0,.1.037.142.113.122a1.863,1.863,0,0,0,.725-.308c.029-.025.054-.02.078.01A.512.512,0,0,1,156.019,275.177Zm-6.5-4.413c.013-.077-.033-.131-.134-.157a1.655,1.655,0,0,0-.447-.049,1.976,1.976,0,0,0-1.356.675,3.377,3.377,0,0,0-.9,2.5,2.085,2.085,0,0,0,.241,1.1.589.589,0,0,0,.512.344,1.025,1.025,0,0,0,.679-.358,3.118,3.118,0,0,0,.63-.942,10.091,10.091,0,0,0,.585-2.022C149.422,271.378,149.486,271.012,149.519,270.764Zm1.138,4.334c.016.025.009.056-.022.091a2.548,2.548,0,0,1-.765.453,2.435,2.435,0,0,1-.815.247.1.1,0,0,1-.115-.119,12.054,12.054,0,0,1,.152-1.794c.013-.088,0-.131-.03-.131s-.057.036-.084.109a3.833,3.833,0,0,1-.779,1.222,4.776,4.776,0,0,1-.5.5,1.022,1.022,0,0,1-.621.216.971.971,0,0,1-.851-.543,2.883,2.883,0,0,1-.325-1.482,3.843,3.843,0,0,1,1.049-2.667,2.59,2.59,0,0,1,1.978-.927,2.811,2.811,0,0,1,.765.1c.092.024.155,0,.185-.073a1.521,1.521,0,0,0,.108-.421.1.1,0,0,1,.1-.084h.416a.15.15,0,0,1,.056.006c.01.009.008.03-.006.065a6.891,6.891,0,0,0-.369,1.275c-.138.739-.239,1.392-.309,1.96a19.02,19.02,0,0,0-.163,2.117c0,.068.027.1.078.1a1.548,1.548,0,0,0,.712-.308c.033-.019.058-.019.078,0A.315.315,0,0,1,150.657,275.1Zm-7.514-4.418a8.456,8.456,0,0,1-.935,2.965,24.658,24.658,0,0,1-1.94,3.417q-1.026,1.485-2.05,1.486c-.337,0-.507-.123-.507-.373s.144-.356.435-.356a5.007,5.007,0,0,1,.675.132.179.179,0,0,0,.15-.035A4.415,4.415,0,0,0,140,276.879a7.719,7.719,0,0,0,.828-1.285.427.427,0,0,0,.01-.224,19.723,19.723,0,0,0-.579-2.322,6.272,6.272,0,0,0-.952-2.109.1.1,0,0,0-.144-.013,5.058,5.058,0,0,0-.519.447.043.043,0,0,1-.065,0l-.013-.019s-.025-.029-.059-.073-.025-.055-.013-.071a5.94,5.94,0,0,1,.814-.816.713.713,0,0,1,.409-.187c.065,0,.143.064.236.187a5.152,5.152,0,0,1,.838,1.816q.163.608.554,2.359c.02.1.059.1.114,0a11.606,11.606,0,0,0,.826-1.936,5.617,5.617,0,0,0,.177-1.338,2.65,2.65,0,0,0-.068-.64.118.118,0,0,1,.019-.117.137.137,0,0,1,.12-.033,2.134,2.134,0,0,0,.507,0,.082.082,0,0,1,.087.042A.24.24,0,0,1,143.143,270.68Zm-4.727-.222c-.016.022-.048.077-.1.163a.2.2,0,0,1-.187.094h-1.2a.075.075,0,0,0-.085.061q-.21,1.217-.519,3.3c-.016.154-.022.338-.022.556a1.072,1.072,0,0,0,.072.494.357.357,0,0,0,.307.2,1.72,1.72,0,0,0,.965-.494,1.1,1.1,0,0,1,.163-.135c.016-.016.037-.012.06.013a.367.367,0,0,1,.084.108.065.065,0,0,1,.018.029c0,.084-.2.267-.6.55a2.423,2.423,0,0,1-1.393.518.382.382,0,0,1-.3-.122,1.059,1.059,0,0,1-.169-.681,7.608,7.608,0,0,1,.072-1.084q.169-1.188.531-3.238c.008-.049-.008-.074-.049-.074H135.5c-.085,0-.124-.023-.115-.073s.029-.12.049-.222a.1.1,0,0,1,.1-.073h.568c.055,0,.088-.012.1-.036.013-.044.057-.285.138-.717a.284.284,0,0,1,.213-.236c.1-.026.257-.059.481-.1a.1.1,0,0,1,.1.022.084.084,0,0,1,.015.087,3.9,3.9,0,0,0-.175.827c-.009.1.007.149.042.149l.676-.006.67-.006C138.421,270.336,138.441,270.375,138.417,270.458Zm-3.938,4.744c.009.033,0,.054-.012.059a3.464,3.464,0,0,1-.881.428,2.862,2.862,0,0,1-.91.2.115.115,0,0,1-.128-.132,17.265,17.265,0,0,1,.2-1.99q.318-2.353.319-2.718c0-.085-.025-.113-.072-.085a5.138,5.138,0,0,0-.765.507c-.033.028-.06.028-.085,0s-.051-.045-.09-.084a.058.058,0,0,1,.012-.078,5.232,5.232,0,0,1,.988-.778,2.142,2.142,0,0,1,.73-.331c.057,0,.085.026.085.082q0,.4-.169,1.858-.091.6-.236,1.688a12.461,12.461,0,0,0-.125,1.412c0,.08.036.119.114.119a1.752,1.752,0,0,0,.9-.294.051.051,0,0,1,.078.013A.286.286,0,0,1,134.479,275.2Zm-.32-6.656c0,.393-.172.591-.518.591-.258,0-.386-.169-.386-.507a.58.58,0,0,1,.149-.4.468.468,0,0,1,.357-.163C134.026,268.062,134.158,268.222,134.158,268.545Zm-2.841,6.645c.016.036.013.061-.012.071a3.456,3.456,0,0,1-.9.435,2.836,2.836,0,0,1-.778.193c-.088,0-.134-.055-.134-.169q0-.411.134-1.694.158-1.348.409-3.607.12-1.069.2-1.875.1-1.012.1-1.261c0-.068-.033-.1-.1-.1a3.647,3.647,0,0,0-.816.175c-.03.009-.061-.009-.09-.049a.75.75,0,0,1-.035-.126c-.016-.041,0-.07.047-.084a6.648,6.648,0,0,1,1.859-.47c.094,0,.136.047.119.14q-.192,1.2-.447,3.231-.305,2.486-.428,3.8-.138,1.423-.138,1.437c0,.08.036.119.108.119a1.544,1.544,0,0,0,.765-.282c.035-.02.062-.02.078,0A.779.779,0,0,1,131.317,275.189Zm-3.966-4.425c.013-.077-.033-.131-.134-.157a1.653,1.653,0,0,0-.447-.049,1.976,1.976,0,0,0-1.356.675,3.377,3.377,0,0,0-.9,2.5,2.085,2.085,0,0,0,.241,1.1.59.59,0,0,0,.512.344,1.026,1.026,0,0,0,.679-.358,3.1,3.1,0,0,0,.63-.942,10.036,10.036,0,0,0,.585-2.022C127.255,271.378,127.319,271.012,127.352,270.764Zm1.139,4.334c.016.025.008.056-.023.091a2.549,2.549,0,0,1-.765.453,2.435,2.435,0,0,1-.815.247.1.1,0,0,1-.115-.119,12.057,12.057,0,0,1,.152-1.794c.013-.088,0-.131-.031-.131s-.056.036-.085.109a3.831,3.831,0,0,1-.778,1.222,4.853,4.853,0,0,1-.5.5,1.022,1.022,0,0,1-.621.216.97.97,0,0,1-.85-.543,2.883,2.883,0,0,1-.325-1.482,3.84,3.84,0,0,1,1.05-2.667,2.588,2.588,0,0,1,1.978-.927,2.8,2.8,0,0,1,.765.1q.139.037.185-.073a1.581,1.581,0,0,0,.109-.421.1.1,0,0,1,.1-.084h.415a.148.148,0,0,1,.056.006c.011.009.008.03-.006.065a6.948,6.948,0,0,0-.369,1.275c-.138.739-.239,1.392-.309,1.96a19.016,19.016,0,0,0-.163,2.117c0,.068.027.1.078.1a1.545,1.545,0,0,0,.712-.308c.033-.019.058-.019.078,0A.307.307,0,0,1,128.49,275.1Zm-5.383.079c.019.024.01.054-.025.084a3.277,3.277,0,0,1-1.653.629c-.093,0-.138-.039-.138-.119,0-.135.018-.386.059-.757.056-.485.124-1,.2-1.532a.412.412,0,0,0,.006-.119c0-.02-.013-.023-.025-.006a.26.26,0,0,0-.054.1,6.018,6.018,0,0,1-1.029,1.669q-.661.762-1.136.762-.689,0-.687-1.194a19.993,19.993,0,0,1,.282-2.424,9.993,9.993,0,0,0,.134-1.466c0-.076-.024-.113-.072-.113a1.343,1.343,0,0,0-.765.308c-.025.025-.045.025-.062,0s-.031-.048-.059-.1c-.016-.026-.013-.048.013-.059a2.42,2.42,0,0,1,.8-.46,2.543,2.543,0,0,1,.863-.184c.084,0,.126.061.126.184a13.094,13.094,0,0,1-.222,1.678,15.583,15.583,0,0,0-.272,2.447c0,.456.107.682.319.682.338,0,.749-.392,1.237-1.176a5.416,5.416,0,0,0,.754-1.815q.108-.59.259-1.765a.1.1,0,0,1,.109-.1h.6c.059,0,.086.029.078.084q-.163.843-.459,2.678a16.5,16.5,0,0,0-.163,2.225c0,.055.027.084.078.084a1.652,1.652,0,0,0,.765-.32c.033-.02.056-.02.072,0l.031.042A.45.45,0,0,1,123.108,275.177Zm-5.054,2.618a.452.452,0,0,1-.163.294,1.927,1.927,0,0,1-1.431.483,4,4,0,0,1-1.862-.472,7.5,7.5,0,0,1-2.153-1.789,5.881,5.881,0,0,0-1.012-1,.913.913,0,0,0-.494-.163,1.064,1.064,0,0,0-.134.02.765.765,0,0,1-.15.022.161.161,0,0,1-.045-.015c-.01-.007-.015-.027-.015-.064,0-.068.058-.138.171-.21a.758.758,0,0,1,.42-.108,2.578,2.578,0,0,1,1.585.754.157.157,0,0,0,.146.038,4.639,4.639,0,0,0,2.394-1.16,4.124,4.124,0,0,0,.953-1.433,5.275,5.275,0,0,0,.282-1.842,3.883,3.883,0,0,0-.626-2.225,2.171,2.171,0,0,0-1.894-1,2.266,2.266,0,0,0-1.729.745,2.708,2.708,0,0,0-.69,1.914,1.982,1.982,0,0,0,.391,1.3,1.311,1.311,0,0,0,1.069.473,1.492,1.492,0,0,0,1.025-.337,1.041,1.041,0,0,0,.369-.826.621.621,0,0,0-.175-.483.593.593,0,0,0-.405-.132c-.047,0-.072-.019-.072-.054,0-.088.087-.134.259-.134a.7.7,0,0,1,.441.151.8.8,0,0,1,.3.687,1.584,1.584,0,0,1-.453,1.165,2.159,2.159,0,0,1-1.568.518,1.68,1.68,0,0,1-1.338-.588,2.3,2.3,0,0,1-.507-1.553,2.976,2.976,0,0,1,1.032-2.276,3.49,3.49,0,0,1,2.441-.945,2.778,2.778,0,0,1,2.237,1.013,3.372,3.372,0,0,1,.778,2.237,4.7,4.7,0,0,1-1.827,4,5.834,5.834,0,0,1-2.447.976c-.106.02-.122.07-.05.145a6.864,6.864,0,0,0,1.358,1.189,4.52,4.52,0,0,0,2.46.824,2.641,2.641,0,0,0,.765-.084,1.384,1.384,0,0,0,.307-.113C118.034,277.742,118.054,277.757,118.054,277.8Z" transform="translate(-35.587 -266.39)"/>
      <path id="Path_532" data-name="Path 532" d="M191.67,275.177c.019.038.016.062-.012.074a2.547,2.547,0,0,1-.832.451,2.619,2.619,0,0,1-.863.187c-.08,0-.117-.055-.108-.169.043-.482.123-1.048.234-1.694a14.934,14.934,0,0,0,.271-2.444c0-.372-.119-.559-.356-.559-.377,0-.766.337-1.163,1.011a6.364,6.364,0,0,0-.693,1.772q-.126.557-.3,1.888c-.009.079-.044.12-.109.12h-.591c-.064,0-.091-.036-.078-.108q.145-.76.421-2.5a13.545,13.545,0,0,0,.146-1.628c0-.372-.119-.559-.356-.559-.379,0-.764.337-1.16,1.011a6.274,6.274,0,0,0-.693,1.772c-.088.372-.185,1-.294,1.888-.013.08-.05.12-.116.12h-.591c-.059,0-.084-.036-.072-.109q.139-.754.416-2.5a20.425,20.425,0,0,0,.212-2.135c0-.059-.02-.09-.074-.09a1.475,1.475,0,0,0-.606.375c-.062.047-.1.064-.122.047a.654.654,0,0,1-.072-.084.066.066,0,0,1,.013-.091,4.721,4.721,0,0,1,1.144-.851,1.368,1.368,0,0,1,.459-.174c.042,0,.06.059.06.174,0,.067-.009.18-.023.344-.033.358-.09.885-.175,1.581-.008.081-.013.132-.013.157s.015.019.029-.006a1.548,1.548,0,0,0,.074-.138,5.641,5.641,0,0,1,.885-1.431,1.641,1.641,0,0,1,1.153-.691q.664,0,.663,1.2a6.1,6.1,0,0,1-.06.884c-.016.113-.018.171-.006.175a.584.584,0,0,0,.091-.175,5.413,5.413,0,0,1,.879-1.393,1.655,1.655,0,0,1,1.147-.691q.695,0,.694,1.2a19.732,19.732,0,0,1-.285,2.415,9.5,9.5,0,0,0-.138,1.46c0,.109.039.154.115.134a2.18,2.18,0,0,0,.716-.32c.037-.02.065-.016.084.01A.379.379,0,0,1,191.67,275.177Zm-7.953,0c.018.038.016.062-.013.074a2.523,2.523,0,0,1-.832.451,2.611,2.611,0,0,1-.862.187c-.08,0-.117-.055-.108-.169.044-.482.123-1.048.234-1.694a14.948,14.948,0,0,0,.272-2.444c0-.372-.12-.559-.356-.559q-.565,0-1.163,1.011a6.364,6.364,0,0,0-.693,1.772q-.127.557-.3,1.888c-.008.079-.043.12-.109.12H179.2c-.064,0-.09-.036-.078-.108q.146-.76.422-2.5a13.5,13.5,0,0,0,.146-1.628c0-.372-.12-.559-.356-.559-.379,0-.763.337-1.159,1.011a6.252,6.252,0,0,0-.694,1.772c-.088.372-.185,1-.294,1.888-.012.08-.049.12-.114.12h-.591c-.059,0-.084-.036-.073-.109q.139-.754.416-2.5a20.878,20.878,0,0,0,.213-2.135c0-.059-.021-.09-.074-.09a1.471,1.471,0,0,0-.607.375c-.062.047-.1.064-.121.047a.664.664,0,0,1-.073-.084.068.068,0,0,1,.013-.091,4.7,4.7,0,0,1,1.144-.851,1.366,1.366,0,0,1,.459-.174c.042,0,.059.059.059.174,0,.067-.008.18-.022.344q-.05.537-.175,1.581c-.008.081-.012.132-.012.157s.014.019.028-.006a1.228,1.228,0,0,0,.074-.138,5.662,5.662,0,0,1,.885-1.431,1.64,1.64,0,0,1,1.153-.691q.663,0,.663,1.2a6.1,6.1,0,0,1-.059.884c-.016.113-.019.171-.006.175a.572.572,0,0,0,.09-.175,5.394,5.394,0,0,1,.88-1.393,1.653,1.653,0,0,1,1.146-.691q.694,0,.694,1.2a19.727,19.727,0,0,1-.285,2.415,9.583,9.583,0,0,0-.137,1.46c0,.109.039.154.114.134a2.174,2.174,0,0,0,.716-.32c.037-.02.066-.016.085.01A.815.815,0,0,1,183.717,275.177Zm-9.052-2.732a2.478,2.478,0,0,0-.294-1.409.9.9,0,0,0-.756-.369,1.272,1.272,0,0,0-.872.369,2.655,2.655,0,0,0-.684,1.176,4.878,4.878,0,0,0-.222,1.471,2.473,2.473,0,0,0,.259,1.285.983.983,0,0,0,.881.469,1.216,1.216,0,0,0,.885-.373A3.543,3.543,0,0,0,174.665,272.445Zm.893-.125a3.485,3.485,0,0,1-.435,1.657,4.118,4.118,0,0,1-1.011,1.263,2.384,2.384,0,0,1-1.485.65,1.468,1.468,0,0,1-1.243-.615,2.353,2.353,0,0,1-.385-1.436,3.851,3.851,0,0,1,1.223-2.724,2.536,2.536,0,0,1,1.791-.916,1.326,1.326,0,0,1,1.151.545A2.67,2.67,0,0,1,175.558,272.32Zm-5.03-3.431c-.009.093-.03.138-.073.138-.025,0-.059-.036-.109-.113a2.718,2.718,0,0,0-.481-.531,2.427,2.427,0,0,0-1.568-.434,3.069,3.069,0,0,0-2.238.916,4.709,4.709,0,0,0-1.272,3.521,3.037,3.037,0,0,0,.79,2.3,2.583,2.583,0,0,0,1.8.8,3.7,3.7,0,0,0,1.218-.2,2.149,2.149,0,0,0,.785-.421A3.108,3.108,0,0,0,169.8,274a.15.15,0,0,1,.138-.059c.072,0,.077.2.013.6-.033.184-.059.337-.084.457a.233.233,0,0,1-.115.12,4.417,4.417,0,0,1-1.157.544,4.62,4.62,0,0,1-1.387.247,3.249,3.249,0,0,1-2.346-.816,3.386,3.386,0,0,1-1-2.568,5.161,5.161,0,0,1,.512-2.238,5.263,5.263,0,0,1,1.356-1.784,4.079,4.079,0,0,1,1.188-.682,4.139,4.139,0,0,1,1.442-.283,3.9,3.9,0,0,1,2.086.417.145.145,0,0,1,.072.126A7.014,7.014,0,0,1,170.528,268.889Zm-10.546,1.978c0-.053-.033-.091-.1-.116a1.175,1.175,0,0,0-.361-.036,1.927,1.927,0,0,0-1.676,1.1,3.853,3.853,0,0,0-.563,2.013,1.9,1.9,0,0,0,.225,1.006.6.6,0,0,0,.518.328,1.081,1.081,0,0,0,.7-.344,2.832,2.832,0,0,0,.659-.941,11.391,11.391,0,0,0,.6-3.009Zm1.369-4.09q-.2,1.213-.472,3.221-.234,1.724-.39,3.1a21.235,21.235,0,0,0-.175,2.117c0,.064.029.1.085.1a1.624,1.624,0,0,0,.728-.318c.033-.021.057-.021.074,0a.257.257,0,0,1,.066.084c.012.017,0,.047-.025.084a2.88,2.88,0,0,1-1.5.716c-.138.033-.207.021-.212-.035s0-.276.024-.681a11.606,11.606,0,0,1,.126-1.185.387.387,0,0,0,.006-.112c0-.022-.013-.023-.024-.007a.6.6,0,0,0-.047.1,4.264,4.264,0,0,1-.779,1.193,1.675,1.675,0,0,1-1.168.742,1,1,0,0,1-.834-.463,2.454,2.454,0,0,1-.378-1.46,3.519,3.519,0,0,1,1.084-2.659,2.885,2.885,0,0,1,1.966-.912,1.388,1.388,0,0,1,.393.038c.088.026.138.012.15-.051.068-.412.141-1.026.223-1.838.057-.591.084-1.01.084-1.261,0-.068-.031-.1-.1-.1a3.151,3.151,0,0,0-.891.187.051.051,0,0,1-.072-.036c-.013-.038-.028-.082-.049-.14-.008-.028.013-.052.062-.073a7.548,7.548,0,0,1,.946-.294,4.767,4.767,0,0,1,.97-.2C161.325,266.627,161.366,266.678,161.351,266.777Zm-5.331,8.4c.015.038.01.062-.013.074a2.518,2.518,0,0,1-.809.451,2.486,2.486,0,0,1-.862.187c-.079,0-.119-.048-.119-.143a15.927,15.927,0,0,1,.222-1.719,16.032,16.032,0,0,0,.247-2.2c0-.612-.121-.922-.362-.922-.3,0-.675.379-1.134,1.133a6.537,6.537,0,0,0-.716,1.815q-.265,1.043-.422,1.845a.128.128,0,0,1-.134.12h-.4c-.076,0-.108-.036-.1-.109q.137-.754.421-2.5a17.29,17.29,0,0,0,.193-2.135c0-.079-.025-.108-.072-.09a2.935,2.935,0,0,0-.64.412.072.072,0,0,1-.091,0,.908.908,0,0,1-.072-.074c-.016-.023-.013-.049.013-.078a4.773,4.773,0,0,1,.7-.566,4.1,4.1,0,0,1,.694-.422.611.611,0,0,1,.222-.049c.054,0,.075.074.066.225-.073.868-.142,1.509-.21,1.928a1.135,1.135,0,0,0-.018.157c0,.038.015.048.031.03a.585.585,0,0,0,.072-.125,5.985,5.985,0,0,1,.953-1.509c.43-.478.794-.716,1.1-.716q.694,0,.694,1.2a19.727,19.727,0,0,1-.285,2.415,9.5,9.5,0,0,0-.138,1.46c0,.1.037.142.113.122a1.863,1.863,0,0,0,.725-.308c.029-.025.054-.02.078.01A.512.512,0,0,1,156.019,275.177Zm-6.5-4.413c.013-.077-.033-.131-.134-.157a1.655,1.655,0,0,0-.447-.049,1.976,1.976,0,0,0-1.356.675,3.377,3.377,0,0,0-.9,2.5,2.085,2.085,0,0,0,.241,1.1.589.589,0,0,0,.512.344,1.025,1.025,0,0,0,.679-.358,3.118,3.118,0,0,0,.63-.942,10.091,10.091,0,0,0,.585-2.022C149.422,271.378,149.486,271.012,149.519,270.764Zm1.138,4.334c.016.025.009.056-.022.091a2.548,2.548,0,0,1-.765.453,2.435,2.435,0,0,1-.815.247.1.1,0,0,1-.115-.119,12.054,12.054,0,0,1,.152-1.794c.013-.088,0-.131-.03-.131s-.057.036-.084.109a3.833,3.833,0,0,1-.779,1.222,4.776,4.776,0,0,1-.5.5,1.022,1.022,0,0,1-.621.216.971.971,0,0,1-.851-.543,2.883,2.883,0,0,1-.325-1.482,3.843,3.843,0,0,1,1.049-2.667,2.59,2.59,0,0,1,1.978-.927,2.811,2.811,0,0,1,.765.1c.092.024.155,0,.185-.073a1.521,1.521,0,0,0,.108-.421.1.1,0,0,1,.1-.084h.416a.15.15,0,0,1,.056.006c.01.009.008.03-.006.065a6.891,6.891,0,0,0-.369,1.275c-.138.739-.239,1.392-.309,1.96a19.02,19.02,0,0,0-.163,2.117c0,.068.027.1.078.1a1.548,1.548,0,0,0,.712-.308c.033-.019.058-.019.078,0A.315.315,0,0,1,150.657,275.1Zm-7.514-4.418a8.456,8.456,0,0,1-.935,2.965,24.658,24.658,0,0,1-1.94,3.417q-1.026,1.485-2.05,1.486c-.337,0-.507-.123-.507-.373s.144-.356.435-.356a5.007,5.007,0,0,1,.675.132.179.179,0,0,0,.15-.035A4.415,4.415,0,0,0,140,276.879a7.719,7.719,0,0,0,.828-1.285.427.427,0,0,0,.01-.224,19.723,19.723,0,0,0-.579-2.322,6.272,6.272,0,0,0-.952-2.109.1.1,0,0,0-.144-.013,5.058,5.058,0,0,0-.519.447.043.043,0,0,1-.065,0l-.013-.019s-.025-.029-.059-.073-.025-.055-.013-.071a5.94,5.94,0,0,1,.814-.816.713.713,0,0,1,.409-.187c.065,0,.143.064.236.187a5.152,5.152,0,0,1,.838,1.816q.163.608.554,2.359c.02.1.059.1.114,0a11.606,11.606,0,0,0,.826-1.936,5.617,5.617,0,0,0,.177-1.338,2.65,2.65,0,0,0-.068-.64.118.118,0,0,1,.019-.117.137.137,0,0,1,.12-.033,2.134,2.134,0,0,0,.507,0,.082.082,0,0,1,.087.042A.24.24,0,0,1,143.143,270.68Zm-4.727-.222c-.016.022-.048.077-.1.163a.2.2,0,0,1-.187.094h-1.2a.075.075,0,0,0-.085.061q-.21,1.217-.519,3.3c-.016.154-.022.338-.022.556a1.072,1.072,0,0,0,.072.494.357.357,0,0,0,.307.2,1.72,1.72,0,0,0,.965-.494,1.1,1.1,0,0,1,.163-.135c.016-.016.037-.012.06.013a.367.367,0,0,1,.084.108.065.065,0,0,1,.018.029c0,.084-.2.267-.6.55a2.423,2.423,0,0,1-1.393.518.382.382,0,0,1-.3-.122,1.059,1.059,0,0,1-.169-.681,7.608,7.608,0,0,1,.072-1.084q.169-1.188.531-3.238c.008-.049-.008-.074-.049-.074H135.5c-.085,0-.124-.023-.115-.073s.029-.12.049-.222a.1.1,0,0,1,.1-.073h.568c.055,0,.088-.012.1-.036.013-.044.057-.285.138-.717a.284.284,0,0,1,.213-.236c.1-.026.257-.059.481-.1a.1.1,0,0,1,.1.022.084.084,0,0,1,.015.087,3.9,3.9,0,0,0-.175.827c-.009.1.007.149.042.149l.676-.006.67-.006C138.421,270.336,138.441,270.375,138.417,270.458Zm-3.938,4.744c.009.033,0,.054-.012.059a3.464,3.464,0,0,1-.881.428,2.862,2.862,0,0,1-.91.2.115.115,0,0,1-.128-.132,17.265,17.265,0,0,1,.2-1.99q.318-2.353.319-2.718c0-.085-.025-.113-.072-.085a5.138,5.138,0,0,0-.765.507c-.033.028-.06.028-.085,0s-.051-.045-.09-.084a.058.058,0,0,1,.012-.078,5.232,5.232,0,0,1,.988-.778,2.142,2.142,0,0,1,.73-.331c.057,0,.085.026.085.082q0,.4-.169,1.858-.091.6-.236,1.688a12.461,12.461,0,0,0-.125,1.412c0,.08.036.119.114.119a1.752,1.752,0,0,0,.9-.294.051.051,0,0,1,.078.013A.286.286,0,0,1,134.479,275.2Zm-.32-6.656c0,.393-.172.591-.518.591-.258,0-.386-.169-.386-.507a.58.58,0,0,1,.149-.4.468.468,0,0,1,.357-.163C134.026,268.062,134.158,268.222,134.158,268.545Zm-2.841,6.645c.016.036.013.061-.012.071a3.456,3.456,0,0,1-.9.435,2.836,2.836,0,0,1-.778.193c-.088,0-.134-.055-.134-.169q0-.411.134-1.694.158-1.348.409-3.607.12-1.069.2-1.875.1-1.012.1-1.261c0-.068-.033-.1-.1-.1a3.647,3.647,0,0,0-.816.175c-.03.009-.061-.009-.09-.049a.75.75,0,0,1-.035-.126c-.016-.041,0-.07.047-.084a6.648,6.648,0,0,1,1.859-.47c.094,0,.136.047.119.14q-.192,1.2-.447,3.231-.305,2.486-.428,3.8-.138,1.423-.138,1.437c0,.08.036.119.108.119a1.544,1.544,0,0,0,.765-.282c.035-.02.062-.02.078,0A.779.779,0,0,1,131.317,275.189Zm-3.966-4.425c.013-.077-.033-.131-.134-.157a1.653,1.653,0,0,0-.447-.049,1.976,1.976,0,0,0-1.356.675,3.377,3.377,0,0,0-.9,2.5,2.085,2.085,0,0,0,.241,1.1.59.59,0,0,0,.512.344,1.026,1.026,0,0,0,.679-.358,3.1,3.1,0,0,0,.63-.942,10.036,10.036,0,0,0,.585-2.022C127.255,271.378,127.319,271.012,127.352,270.764Zm1.139,4.334c.016.025.008.056-.023.091a2.549,2.549,0,0,1-.765.453,2.435,2.435,0,0,1-.815.247.1.1,0,0,1-.115-.119,12.057,12.057,0,0,1,.152-1.794c.013-.088,0-.131-.031-.131s-.056.036-.085.109a3.831,3.831,0,0,1-.778,1.222,4.853,4.853,0,0,1-.5.5,1.022,1.022,0,0,1-.621.216.97.97,0,0,1-.85-.543,2.883,2.883,0,0,1-.325-1.482,3.84,3.84,0,0,1,1.05-2.667,2.588,2.588,0,0,1,1.978-.927,2.8,2.8,0,0,1,.765.1q.139.037.185-.073a1.581,1.581,0,0,0,.109-.421.1.1,0,0,1,.1-.084h.415a.148.148,0,0,1,.056.006c.011.009.008.03-.006.065a6.948,6.948,0,0,0-.369,1.275c-.138.739-.239,1.392-.309,1.96a19.016,19.016,0,0,0-.163,2.117c0,.068.027.1.078.1a1.545,1.545,0,0,0,.712-.308c.033-.019.058-.019.078,0A.307.307,0,0,1,128.49,275.1Zm-5.383.079c.019.024.01.054-.025.084a3.277,3.277,0,0,1-1.653.629c-.093,0-.138-.039-.138-.119,0-.135.018-.386.059-.757.056-.485.124-1,.2-1.532a.412.412,0,0,0,.006-.119c0-.02-.013-.023-.025-.006a.26.26,0,0,0-.054.1,6.018,6.018,0,0,1-1.029,1.669q-.661.762-1.136.762-.689,0-.687-1.194a19.993,19.993,0,0,1,.282-2.424,9.993,9.993,0,0,0,.134-1.466c0-.076-.024-.113-.072-.113a1.343,1.343,0,0,0-.765.308c-.025.025-.045.025-.062,0s-.031-.048-.059-.1c-.016-.026-.013-.048.013-.059a2.42,2.42,0,0,1,.8-.46,2.543,2.543,0,0,1,.863-.184c.084,0,.126.061.126.184a13.094,13.094,0,0,1-.222,1.678,15.583,15.583,0,0,0-.272,2.447c0,.456.107.682.319.682.338,0,.749-.392,1.237-1.176a5.416,5.416,0,0,0,.754-1.815q.108-.59.259-1.765a.1.1,0,0,1,.109-.1h.6c.059,0,.086.029.078.084q-.163.843-.459,2.678a16.5,16.5,0,0,0-.163,2.225c0,.055.027.084.078.084a1.652,1.652,0,0,0,.765-.32c.033-.02.056-.02.072,0l.031.042A.45.45,0,0,1,123.108,275.177Zm-5.054,2.618a.452.452,0,0,1-.163.294,1.927,1.927,0,0,1-1.431.483,4,4,0,0,1-1.862-.472,7.5,7.5,0,0,1-2.153-1.789,5.881,5.881,0,0,0-1.012-1,.913.913,0,0,0-.494-.163,1.064,1.064,0,0,0-.134.02.765.765,0,0,1-.15.022.161.161,0,0,1-.045-.015c-.01-.007-.015-.027-.015-.064,0-.068.058-.138.171-.21a.758.758,0,0,1,.42-.108,2.578,2.578,0,0,1,1.585.754.157.157,0,0,0,.146.038,4.639,4.639,0,0,0,2.394-1.16,4.124,4.124,0,0,0,.953-1.433,5.275,5.275,0,0,0,.282-1.842,3.883,3.883,0,0,0-.626-2.225,2.171,2.171,0,0,0-1.894-1,2.266,2.266,0,0,0-1.729.745,2.708,2.708,0,0,0-.69,1.914,1.982,1.982,0,0,0,.391,1.3,1.311,1.311,0,0,0,1.069.473,1.492,1.492,0,0,0,1.025-.337,1.041,1.041,0,0,0,.369-.826.621.621,0,0,0-.175-.483.593.593,0,0,0-.405-.132c-.047,0-.072-.019-.072-.054,0-.088.087-.134.259-.134a.7.7,0,0,1,.441.151.8.8,0,0,1,.3.687,1.584,1.584,0,0,1-.453,1.165,2.159,2.159,0,0,1-1.568.518,1.68,1.68,0,0,1-1.338-.588,2.3,2.3,0,0,1-.507-1.553,2.976,2.976,0,0,1,1.032-2.276,3.49,3.49,0,0,1,2.441-.945,2.778,2.778,0,0,1,2.237,1.013,3.372,3.372,0,0,1,.778,2.237,4.7,4.7,0,0,1-1.827,4,5.834,5.834,0,0,1-2.447.976c-.106.02-.122.07-.05.145a6.864,6.864,0,0,0,1.358,1.189,4.52,4.52,0,0,0,2.46.824,2.641,2.641,0,0,0,.765-.084,1.384,1.384,0,0,0,.307-.113C118.034,277.742,118.054,277.757,118.054,277.8Z" transform="translate(-35.587 -266.39)" stroke="#fff" stroke-width="0.216"/>
      <path id="Path_533" data-name="Path 533" d="M247.911,270.954c-.016.022-.048.077-.1.163a.2.2,0,0,1-.187.094h-1.2a.075.075,0,0,0-.085.061q-.21,1.217-.518,3.3c-.016.154-.023.338-.023.556a1.069,1.069,0,0,0,.073.493.355.355,0,0,0,.306.2,1.72,1.72,0,0,0,.966-.493,1.127,1.127,0,0,1,.162-.135c.017-.016.038-.012.06.013a.342.342,0,0,1,.084.108.058.058,0,0,1,.018.029q0,.126-.6.55a2.426,2.426,0,0,1-1.393.518.382.382,0,0,1-.3-.122,1.059,1.059,0,0,1-.169-.681,7.6,7.6,0,0,1,.072-1.084q.169-1.188.531-3.238c.009-.049-.007-.074-.049-.074H245c-.084,0-.123-.023-.114-.073s.029-.12.049-.222a.1.1,0,0,1,.1-.073h.569c.055,0,.088-.012.1-.036.013-.044.057-.285.138-.717a.283.283,0,0,1,.212-.236c.1-.026.258-.059.481-.1a.1.1,0,0,1,.1.022.083.083,0,0,1,.014.087,3.9,3.9,0,0,0-.175.827c-.009.1.006.149.042.149l.675-.006.671-.006C247.915,270.832,247.935,270.871,247.911,270.954Zm-3.775,4.719c.015.038.01.062-.013.074a2.516,2.516,0,0,1-.809.451,2.485,2.485,0,0,1-.862.187c-.08,0-.119-.047-.119-.143a15.929,15.929,0,0,1,.222-1.719,16.03,16.03,0,0,0,.247-2.2c0-.612-.121-.921-.362-.921-.3,0-.675.379-1.134,1.133a6.537,6.537,0,0,0-.716,1.816q-.265,1.043-.422,1.845a.128.128,0,0,1-.134.12h-.4c-.076,0-.109-.036-.1-.109q.137-.753.421-2.5a17.176,17.176,0,0,0,.194-2.135c0-.079-.025-.108-.072-.09a2.933,2.933,0,0,0-.64.412.072.072,0,0,1-.091,0,.906.906,0,0,1-.072-.074c-.016-.023-.013-.049.013-.078a4.769,4.769,0,0,1,.7-.566,4.1,4.1,0,0,1,.694-.422.61.61,0,0,1,.222-.049c.054,0,.075.074.066.225-.073.868-.142,1.509-.21,1.928a1.127,1.127,0,0,0-.018.157c0,.038.015.048.031.03a.584.584,0,0,0,.072-.125,5.984,5.984,0,0,1,.953-1.509c.43-.478.794-.716,1.1-.716q.694,0,.694,1.2a19.723,19.723,0,0,1-.285,2.415,9.507,9.507,0,0,0-.138,1.46c0,.1.037.142.113.122a1.863,1.863,0,0,0,.725-.308c.029-.024.053-.02.078.01A.462.462,0,0,1,244.136,275.673Zm-6.332-3.792a.57.57,0,0,0-.163-.434.542.542,0,0,0-.41-.187.992.992,0,0,0-.736.3,2.534,2.534,0,0,0-.494,1.405c-.008.052,0,.082.013.091a.127.127,0,0,0,.072-.019,9.252,9.252,0,0,0,1.677-1.013C237.779,272.013,237.794,271.966,237.8,271.881Zm1.272-.58c0,.054-.058.126-.175.219a15.892,15.892,0,0,1-2.863,1.827.2.2,0,0,0-.128.149,3.137,3.137,0,0,0-.035.544,1.813,1.813,0,0,0,.366,1.216,1.037,1.037,0,0,0,.809.375,2.334,2.334,0,0,0,1.532-.675.059.059,0,0,1,.084-.013.556.556,0,0,1,.072.084c.02.038.02.064,0,.085a2.6,2.6,0,0,1-.687.643,3.032,3.032,0,0,1-1.682.629,1.029,1.029,0,0,1-.881-.591,3.406,3.406,0,0,1-.391-1.767,3.5,3.5,0,0,1,1.122-2.592,2.1,2.1,0,0,1,1.362-.742q.861,0,.947.62a.1.1,0,0,0,.113.1q.03,0,.167-.14c.09-.1.146-.14.166-.131A.153.153,0,0,1,239.075,271.3Zm-4.473,4.372c.018.038.016.062-.013.074a2.53,2.53,0,0,1-.832.451,2.611,2.611,0,0,1-.862.187c-.08,0-.117-.055-.109-.169.044-.482.123-1.048.234-1.694a15.036,15.036,0,0,0,.272-2.444c0-.372-.12-.559-.356-.559q-.565,0-1.163,1.011a6.365,6.365,0,0,0-.694,1.772q-.126.557-.3,1.888c-.008.079-.044.12-.108.12h-.591c-.064,0-.091-.036-.078-.108q.146-.76.422-2.5a13.66,13.66,0,0,0,.146-1.628c0-.372-.12-.559-.356-.559-.379,0-.763.337-1.159,1.011a6.21,6.21,0,0,0-.694,1.772q-.133.557-.294,1.888c-.013.079-.049.12-.114.12h-.591c-.06,0-.085-.036-.073-.108q.139-.754.416-2.5a20.616,20.616,0,0,0,.212-2.135c0-.059-.02-.09-.074-.09a1.48,1.48,0,0,0-.607.375c-.062.048-.1.064-.121.048a.723.723,0,0,1-.072-.084.067.067,0,0,1,.013-.091,4.7,4.7,0,0,1,1.144-.851,1.367,1.367,0,0,1,.459-.174c.042,0,.059.06.059.174,0,.067-.008.18-.022.344q-.05.537-.175,1.581c-.009.081-.013.132-.013.157s.015.019.029-.006a1.234,1.234,0,0,0,.074-.138,5.636,5.636,0,0,1,.884-1.431,1.643,1.643,0,0,1,1.153-.691q.664,0,.664,1.2a6.094,6.094,0,0,1-.059.884c-.016.113-.019.171-.007.175a.567.567,0,0,0,.091-.175,5.414,5.414,0,0,1,.879-1.393,1.654,1.654,0,0,1,1.146-.691q.694,0,.694,1.2a19.672,19.672,0,0,1-.284,2.415,9.6,9.6,0,0,0-.138,1.46c0,.108.039.154.115.134a2.172,2.172,0,0,0,.716-.32c.037-.02.066-.016.084.01A.827.827,0,0,1,234.6,275.673Zm-7.791-4.719c-.016.022-.047.077-.1.163a.2.2,0,0,1-.187.094h-1.2a.074.074,0,0,0-.084.061q-.211,1.217-.52,3.3c-.016.154-.022.338-.022.556a1.074,1.074,0,0,0,.071.493.358.358,0,0,0,.308.2,1.723,1.723,0,0,0,.965-.493,1.1,1.1,0,0,1,.163-.135c.016-.016.036-.012.059.013a.366.366,0,0,1,.084.108.06.06,0,0,1,.019.029c0,.084-.2.267-.6.55a2.426,2.426,0,0,1-1.393.518.381.381,0,0,1-.3-.122,1.058,1.058,0,0,1-.169-.681,7.6,7.6,0,0,1,.073-1.084q.169-1.188.531-3.238c.007-.049-.009-.074-.049-.074H223.9c-.085,0-.124-.023-.115-.073s.028-.12.048-.222a.1.1,0,0,1,.1-.073h.568c.056,0,.088-.012.1-.036.012-.044.057-.285.138-.717a.282.282,0,0,1,.212-.236c.1-.026.257-.059.482-.1a.1.1,0,0,1,.094.022.083.083,0,0,1,.015.087,3.943,3.943,0,0,0-.175.827c-.008.1.007.149.042.149l.675-.006.67-.006C226.815,270.832,226.836,270.871,226.811,270.954Zm-3.937,4.744c.008.033,0,.054-.013.06a3.453,3.453,0,0,1-.881.428,2.857,2.857,0,0,1-.91.2.115.115,0,0,1-.128-.132,17.429,17.429,0,0,1,.2-1.99q.318-2.353.32-2.718c0-.085-.025-.113-.073-.085a5.215,5.215,0,0,0-.765.507c-.033.028-.06.028-.085,0s-.051-.045-.091-.084a.06.06,0,0,1,.013-.078,5.231,5.231,0,0,1,.988-.778,2.145,2.145,0,0,1,.73-.331.074.074,0,0,1,.085.083c0,.265-.058.884-.169,1.858q-.093.6-.236,1.688a12.329,12.329,0,0,0-.126,1.412c0,.08.037.119.114.119a1.752,1.752,0,0,0,.9-.294.051.051,0,0,1,.078.013A.307.307,0,0,1,222.874,275.7Zm-.322-6.656c0,.393-.172.591-.518.591q-.386,0-.385-.507a.583.583,0,0,1,.148-.4.469.469,0,0,1,.358-.163C222.42,268.558,222.552,268.718,222.552,269.041Z" transform="translate(-63.8 -266.886)"/>
      <path id="Path_534" data-name="Path 534" d="M247.911,270.954c-.016.022-.048.077-.1.163a.2.2,0,0,1-.187.094h-1.2a.075.075,0,0,0-.085.061q-.21,1.217-.518,3.3c-.016.154-.023.338-.023.556a1.069,1.069,0,0,0,.073.493.355.355,0,0,0,.306.2,1.72,1.72,0,0,0,.966-.493,1.127,1.127,0,0,1,.162-.135c.017-.016.038-.012.06.013a.342.342,0,0,1,.084.108.058.058,0,0,1,.018.029q0,.126-.6.55a2.426,2.426,0,0,1-1.393.518.382.382,0,0,1-.3-.122,1.059,1.059,0,0,1-.169-.681,7.6,7.6,0,0,1,.072-1.084q.169-1.188.531-3.238c.009-.049-.007-.074-.049-.074H245c-.084,0-.123-.023-.114-.073s.029-.12.049-.222a.1.1,0,0,1,.1-.073h.569c.055,0,.088-.012.1-.036.013-.044.057-.285.138-.717a.283.283,0,0,1,.212-.236c.1-.026.258-.059.481-.1a.1.1,0,0,1,.1.022.083.083,0,0,1,.014.087,3.9,3.9,0,0,0-.175.827c-.009.1.006.149.042.149l.675-.006.671-.006C247.915,270.832,247.935,270.871,247.911,270.954Zm-3.775,4.719c.015.038.01.062-.013.074a2.516,2.516,0,0,1-.809.451,2.485,2.485,0,0,1-.862.187c-.08,0-.119-.047-.119-.143a15.929,15.929,0,0,1,.222-1.719,16.03,16.03,0,0,0,.247-2.2c0-.612-.121-.921-.362-.921-.3,0-.675.379-1.134,1.133a6.537,6.537,0,0,0-.716,1.816q-.265,1.043-.422,1.845a.128.128,0,0,1-.134.12h-.4c-.076,0-.109-.036-.1-.109q.137-.753.421-2.5a17.176,17.176,0,0,0,.194-2.135c0-.079-.025-.108-.072-.09a2.933,2.933,0,0,0-.64.412.072.072,0,0,1-.091,0,.906.906,0,0,1-.072-.074c-.016-.023-.013-.049.013-.078a4.769,4.769,0,0,1,.7-.566,4.1,4.1,0,0,1,.694-.422.61.61,0,0,1,.222-.049c.054,0,.075.074.066.225-.073.868-.142,1.509-.21,1.928a1.127,1.127,0,0,0-.018.157c0,.038.015.048.031.03a.584.584,0,0,0,.072-.125,5.984,5.984,0,0,1,.953-1.509c.43-.478.794-.716,1.1-.716q.694,0,.694,1.2a19.723,19.723,0,0,1-.285,2.415,9.507,9.507,0,0,0-.138,1.46c0,.1.037.142.113.122a1.863,1.863,0,0,0,.725-.308c.029-.024.053-.02.078.01A.462.462,0,0,1,244.136,275.673Zm-6.332-3.792a.57.57,0,0,0-.163-.434.542.542,0,0,0-.41-.187.992.992,0,0,0-.736.3,2.534,2.534,0,0,0-.494,1.405c-.008.052,0,.082.013.091a.127.127,0,0,0,.072-.019,9.252,9.252,0,0,0,1.677-1.013C237.779,272.013,237.794,271.966,237.8,271.881Zm1.272-.58c0,.054-.058.126-.175.219a15.892,15.892,0,0,1-2.863,1.827.2.2,0,0,0-.128.149,3.137,3.137,0,0,0-.035.544,1.813,1.813,0,0,0,.366,1.216,1.037,1.037,0,0,0,.809.375,2.334,2.334,0,0,0,1.532-.675.059.059,0,0,1,.084-.013.556.556,0,0,1,.072.084c.02.038.02.064,0,.085a2.6,2.6,0,0,1-.687.643,3.032,3.032,0,0,1-1.682.629,1.029,1.029,0,0,1-.881-.591,3.406,3.406,0,0,1-.391-1.767,3.5,3.5,0,0,1,1.122-2.592,2.1,2.1,0,0,1,1.362-.742q.861,0,.947.62a.1.1,0,0,0,.113.1q.03,0,.167-.14c.09-.1.146-.14.166-.131A.153.153,0,0,1,239.075,271.3Zm-4.473,4.372c.018.038.016.062-.013.074a2.53,2.53,0,0,1-.832.451,2.611,2.611,0,0,1-.862.187c-.08,0-.117-.055-.109-.169.044-.482.123-1.048.234-1.694a15.036,15.036,0,0,0,.272-2.444c0-.372-.12-.559-.356-.559q-.565,0-1.163,1.011a6.365,6.365,0,0,0-.694,1.772q-.126.557-.3,1.888c-.008.079-.044.12-.108.12h-.591c-.064,0-.091-.036-.078-.108q.146-.76.422-2.5a13.66,13.66,0,0,0,.146-1.628c0-.372-.12-.559-.356-.559-.379,0-.763.337-1.159,1.011a6.21,6.21,0,0,0-.694,1.772q-.133.557-.294,1.888c-.013.079-.049.12-.114.12h-.591c-.06,0-.085-.036-.073-.108q.139-.754.416-2.5a20.616,20.616,0,0,0,.212-2.135c0-.059-.02-.09-.074-.09a1.48,1.48,0,0,0-.607.375c-.062.048-.1.064-.121.048a.723.723,0,0,1-.072-.084.067.067,0,0,1,.013-.091,4.7,4.7,0,0,1,1.144-.851,1.367,1.367,0,0,1,.459-.174c.042,0,.059.06.059.174,0,.067-.008.18-.022.344q-.05.537-.175,1.581c-.009.081-.013.132-.013.157s.015.019.029-.006a1.234,1.234,0,0,0,.074-.138,5.636,5.636,0,0,1,.884-1.431,1.643,1.643,0,0,1,1.153-.691q.664,0,.664,1.2a6.094,6.094,0,0,1-.059.884c-.016.113-.019.171-.007.175a.567.567,0,0,0,.091-.175,5.414,5.414,0,0,1,.879-1.393,1.654,1.654,0,0,1,1.146-.691q.694,0,.694,1.2a19.672,19.672,0,0,1-.284,2.415,9.6,9.6,0,0,0-.138,1.46c0,.108.039.154.115.134a2.172,2.172,0,0,0,.716-.32c.037-.02.066-.016.084.01A.827.827,0,0,1,234.6,275.673Zm-7.791-4.719c-.016.022-.047.077-.1.163a.2.2,0,0,1-.187.094h-1.2a.074.074,0,0,0-.084.061q-.211,1.217-.52,3.3c-.016.154-.022.338-.022.556a1.074,1.074,0,0,0,.071.493.358.358,0,0,0,.308.2,1.723,1.723,0,0,0,.965-.493,1.1,1.1,0,0,1,.163-.135c.016-.016.036-.012.059.013a.366.366,0,0,1,.084.108.06.06,0,0,1,.019.029c0,.084-.2.267-.6.55a2.426,2.426,0,0,1-1.393.518.381.381,0,0,1-.3-.122,1.058,1.058,0,0,1-.169-.681,7.6,7.6,0,0,1,.073-1.084q.169-1.188.531-3.238c.007-.049-.009-.074-.049-.074H223.9c-.085,0-.124-.023-.115-.073s.028-.12.048-.222a.1.1,0,0,1,.1-.073h.568c.056,0,.088-.012.1-.036.012-.044.057-.285.138-.717a.282.282,0,0,1,.212-.236c.1-.026.257-.059.482-.1a.1.1,0,0,1,.094.022.083.083,0,0,1,.015.087,3.943,3.943,0,0,0-.175.827c-.008.1.007.149.042.149l.675-.006.67-.006C226.815,270.832,226.836,270.871,226.811,270.954Zm-3.937,4.744c.008.033,0,.054-.013.06a3.453,3.453,0,0,1-.881.428,2.857,2.857,0,0,1-.91.2.115.115,0,0,1-.128-.132,17.429,17.429,0,0,1,.2-1.99q.318-2.353.32-2.718c0-.085-.025-.113-.073-.085a5.215,5.215,0,0,0-.765.507c-.033.028-.06.028-.085,0s-.051-.045-.091-.084a.06.06,0,0,1,.013-.078,5.231,5.231,0,0,1,.988-.778,2.145,2.145,0,0,1,.73-.331.074.074,0,0,1,.085.083c0,.265-.058.884-.169,1.858q-.093.6-.236,1.688a12.329,12.329,0,0,0-.126,1.412c0,.08.037.119.114.119a1.752,1.752,0,0,0,.9-.294.051.051,0,0,1,.078.013A.307.307,0,0,1,222.874,275.7Zm-.322-6.656c0,.393-.172.591-.518.591q-.386,0-.385-.507a.583.583,0,0,1,.148-.4.469.469,0,0,1,.358-.163C222.42,268.558,222.552,268.718,222.552,269.041Z" transform="translate(-63.8 -266.886)" stroke="#fff" stroke-width="0.216"/>
    </g>
  </g>
</svg>
